<?xml version="1.0" encoding="UTF-8"?>
<svg version="1.1" xmlns="http://www.w3.org/2000/svg" width="1745" height="2048">
<path d="M0 0 C8.59580991 7.64730675 13.85100131 18.2074774 19.25 28.1875 C19.94846199 29.46765388 20.6476134 30.74743182 21.34741211 32.02685547 C22.7828905 34.65176531 24.21610077 37.27789373 25.64794922 39.90478516 C28.83650873 45.74648098 32.07506935 51.56027204 35.3125 57.375 C36.55474271 59.60934431 37.79693022 61.8437193 39.0390625 64.078125 C40.2759858 66.3021144 41.51296491 68.52607277 42.75 70.75 C50.62399002 84.90576721 58.48676633 99.06750128 66.3125 113.25 C66.64434296 113.85124695 66.97618591 114.4524939 67.31808472 115.07196045 C71.4832638 122.61981311 75.62974121 130.17752902 79.75 137.75 C80.67184082 137.43885254 81.59368164 137.12770508 82.54345703 136.80712891 C137.15413474 118.44469514 193.07261561 105.23698718 250.75 101.75 C251.42170227 101.70869965 252.09340454 101.66739929 252.78546143 101.62484741 C266.35968628 100.809676 279.90293743 100.54748914 293.5 100.5625 C295.03436707 100.56340637 295.03436707 100.56340637 296.59973145 100.56433105 C369.53957424 100.68046377 439.8851474 114.11096119 508.75 137.75 C509.10602295 137.08282959 509.4620459 136.41565918 509.82885742 135.72827148 C516.718424 122.83388517 523.68581753 110.00219529 530.92260742 97.29858398 C534.78825526 90.49609726 538.54239557 83.63976102 542.25 76.75 C546.94555298 68.02838267 551.74444607 59.37468888 556.65527344 50.77246094 C559.7727255 45.2977743 562.82138726 39.79249209 565.80859375 34.24609375 C566.862118 32.30023598 567.91631563 30.35474406 568.97055054 28.40927124 C569.64363235 27.16093822 570.31261494 25.91038399 570.97695923 24.65737915 C580.01548176 7.61462166 591.16872073 -5.65333856 609.75 -12.25 C627.13408129 -17.11541192 643.13352073 -15.74002802 659.375 -7.5625 C673.29213074 0.44735942 682.58672603 12.67825695 687.75 27.75 C687.99621094 28.46285156 688.24242187 29.17570312 688.49609375 29.91015625 C689.87757966 34.85492307 689.97797361 39.89267726 690.0625 45 C690.08030518 45.66668701 690.09811035 46.33337402 690.11645508 47.02026367 C690.09795916 59.01273401 686.02113343 69.23715865 680.375 79.625 C679.74561416 80.80759087 679.11721546 81.99070756 678.48974609 83.17431641 C673.54323072 92.46029411 668.37867973 101.62482989 663.15625 110.7578125 C659.32629049 117.46698453 655.59853441 124.2314722 651.875 131 C650.52103388 133.45974585 649.16681124 135.9193504 647.8125 138.37890625 C647.47657837 138.98907089 647.14065674 139.59923553 646.79455566 140.22789001 C641.3718399 150.07319719 635.90160617 159.89219905 630.43798828 169.71484375 C627.89455336 174.28817075 625.35352023 178.86283106 622.8125 183.4375 C622.01173181 184.87891351 621.21095217 186.32032065 620.41015625 187.76171875 C619.86230469 188.74785156 619.31445312 189.73398438 618.75 190.75 C623.37408594 194.6494869 628.38949343 197.87504573 633.4375 201.1875 C656.03388472 216.1451173 677.43049541 232.46313638 697.48046875 250.69921875 C699.58652418 252.60228088 701.72320469 254.46153821 703.875 256.3125 C707.33741899 259.32299683 710.55067767 262.52975926 713.765625 265.80078125 C715.61232036 267.61475957 717.51573676 269.27711444 719.5 270.9375 C724.80065691 275.50596501 729.38248684 280.75345886 734.07763672 285.92480469 C735.80725479 287.81248712 737.5579219 289.67825768 739.31640625 291.5390625 C746.10413496 298.72219288 752.60594653 306.00083914 758.75 313.75 C759.66792451 314.87739959 760.5872797 316.00363534 761.5078125 317.12890625 C822.44627759 391.92068885 861.13779004 482.54886672 878.75 673.75 C879.53793945 672.94900879 880.32587891 672.14801758 881.13769531 671.32275391 C911.9460897 640.15267819 952.62384872 621.05277979 996.8059082 620.50830078 C1039.11165547 620.40046696 1079.14930241 633.7412888 1110.5078125 662.6953125 C1112.44106313 664.46689757 1114.41289334 666.14782341 1116.4375 667.8125 C1120.29982291 671.11792984 1123.53437818 674.82123624 1126.75 678.75 C1127.8946875 680.13832031 1127.8946875 680.13832031 1129.0625 681.5546875 C1151.30689758 709.14671925 1164.95768522 744.53868823 1164.88142776 780.12562275 C1164.88450672 781.48206651 1164.88450672 781.48206651 1164.88764787 782.86591318 C1164.89329042 785.88810579 1164.89186402 788.91025242 1164.89044189 791.93244934 C1164.89302711 794.12448211 1164.89604071 796.31651441 1164.8994453 798.50854605 C1164.90750029 804.52664082 1164.90930403 810.54472366 1164.91004276 816.56282318 C1164.91189596 823.05595396 1164.9194447 829.54907859 1164.92617798 836.04220581 C1164.94072707 850.97896225 1164.94628678 865.9157174 1164.95086992 880.85247965 C1164.95320848 888.23993836 1164.95681144 895.6273963 1164.9605653 903.01485441 C1164.97339957 928.32211878 1164.98411822 953.62938272 1164.9875679 978.93665028 C1164.98778953 980.52441741 1164.98801132 982.11218455 1164.98823325 983.69995169 C1164.98845389 985.29147208 1164.98867437 986.88299248 1164.9888947 988.47451288 C1164.98933724 991.667172 1164.98978436 994.85983112 1164.99023438 998.05249023 C1164.99034377 998.84408023 1164.99045316 999.63567023 1164.99056586 1000.4512478 C1164.99419428 1026.10278224 1165.01010684 1051.75428837 1165.03342474 1077.40581197 C1165.05805461 1104.55044221 1165.07174223 1131.69505628 1165.07293582 1158.83969802 C1165.07310726 1161.82309608 1165.07332269 1164.80649414 1165.07357025 1167.7898922 C1165.07362602 1168.52444444 1165.07368179 1169.25899668 1165.07373925 1170.01580808 C1165.07488703 1181.80630984 1165.08588581 1193.59678243 1165.10045731 1205.38727436 C1165.11486734 1217.25288982 1165.11803398 1229.11846813 1165.11001733 1240.98408995 C1165.10612105 1247.40473659 1165.10699042 1253.82528566 1165.12107468 1260.24592018 C1165.13387493 1266.13532696 1165.13256257 1272.02456344 1165.12048396 1277.91397019 C1165.11853752 1280.03315634 1165.12155608 1282.15235481 1165.13032833 1284.27152369 C1165.28134213 1323.25256291 1154.82958442 1361.20592076 1129.75 1391.75 C1129.29898926 1392.3063916 1128.84797852 1392.8627832 1128.38330078 1393.43603516 C1100.92270936 1427.16429966 1061.68149212 1448.87747947 1018.28515625 1453.46875 C971.13214619 1456.86246145 927.69211981 1444.09459975 891.61450195 1413.16015625 C888.47608867 1410.40357922 885.49226268 1407.52132416 882.54492188 1404.5612793 C881.83203003 1403.84602585 881.11913818 1403.1307724 880.38464355 1402.3938446 C879.84521118 1401.85137589 879.30577881 1401.30890717 878.75 1400.75 C878.74120064 1402.13917381 878.74120064 1402.13917381 878.73222351 1403.55641174 C878.67370353 1412.39380831 878.60130371 1421.23096785 878.51428509 1430.06813145 C878.47003867 1434.60863448 878.43069006 1439.14905711 878.40356445 1443.68969727 C878.11383387 1490.72699068 872.24920446 1534.35132325 842.75 1572.75 C842.07839844 1573.64589844 841.40679688 1574.54179688 840.71484375 1575.46484375 C813.89056888 1609.83506107 775.37561924 1632.07776449 732.5625 1639.5 C731.89911621 1639.61577393 731.23573242 1639.73154785 730.55224609 1639.85083008 C715.10164821 1642.29108185 699.39939379 1641.87365222 683.8125 1641.8125 C681.56836038 1641.80747302 679.32421966 1641.80291224 677.08007812 1641.79882812 C671.63669446 1641.78792191 666.19335249 1641.77127949 660.75 1641.75 C660.75184359 1642.90477152 660.75368717 1644.05954304 660.75558662 1645.24930763 C660.79904356 1672.75423726 660.83195132 1700.25916342 660.85213066 1727.76412038 C660.85463162 1731.16061807 660.85722031 1734.55711569 660.85986328 1737.95361328 C660.8603879 1738.62970262 660.86091252 1739.30579196 660.86145304 1740.00236885 C660.87012001 1750.90301443 660.88586919 1761.80363858 660.90430559 1772.70427151 C660.92310847 1783.91635788 660.93398912 1795.12843702 660.93817699 1806.34053934 C660.94076978 1812.62680365 660.9468044 1818.91301962 660.96146011 1825.19926834 C660.97518129 1831.13356394 660.97919372 1837.06779195 660.97621536 1843.0021019 C660.9767591 1845.16336689 660.98064897 1847.32463449 660.98841095 1849.48588562 C661.0493608 1867.35520376 660.81874724 1885.68545399 656.5 1903.125 C656.28384033 1904.02943848 656.06768066 1904.93387695 655.8449707 1905.86572266 C649.58923845 1931.07152869 636.99931833 1954.43711292 619.75 1973.75 C619.15703125 1974.46414063 618.5640625 1975.17828125 617.953125 1975.9140625 C592.23713783 2006.84963122 552.08237303 2025.32879498 512.47705078 2029.28320312 C481.91069767 2031.8388058 452.48750287 2026.78904755 424.75 2013.75 C424.01507324 2013.40453125 423.28014648 2013.0590625 422.52294922 2012.703125 C407.25092686 2005.37965912 393.95428054 1995.46853803 381.75 1983.75 C380.85925781 1982.91082031 379.96851563 1982.07164063 379.05078125 1981.20703125 C350.18562725 1953.30807487 332.58313376 1912.65282221 331.56873703 1872.52268982 C331.48007514 1866.43832024 331.50208204 1860.35432356 331.52294922 1854.26953125 C331.52351445 1851.94207769 331.52319459 1849.61462377 331.52206421 1847.28717041 C331.52149407 1841.01555881 331.53319314 1834.74402485 331.54721212 1828.47243118 C331.55977636 1821.90081432 331.56089445 1815.32919538 331.56326294 1808.75756836 C331.5684254 1797.74266222 331.58122199 1786.72778304 331.59912109 1775.71289062 C331.61752467 1764.37565246 331.63165916 1753.03842199 331.64013672 1741.70117188 C331.64092489 1740.6500808 331.64092489 1740.6500808 331.64172898 1739.57775557 C331.64433936 1736.06184495 331.64686671 1732.54593428 331.64935279 1729.03002357 C331.67003168 1699.9366609 331.70687222 1670.8433391 331.75 1641.75 C307 1641.75 282.25 1641.75 256.75 1641.75 C256.76571045 1648.78393066 256.7814209 1655.81786133 256.79760742 1663.06494141 C256.84590364 1685.6504724 256.87918985 1708.23601022 256.90319599 1730.82157854 C256.90694746 1734.3382465 256.91083049 1737.8549143 256.91479492 1741.37158203 C256.91558185 1742.07159629 256.91636878 1742.77161054 256.91717956 1743.49283735 C256.93018253 1754.78148782 256.95380772 1766.07009177 256.98145839 1777.35871477 C257.00965567 1788.9685665 257.02598219 1800.57839134 257.03226548 1812.18827569 C257.03615588 1818.69813039 257.04521557 1825.20788011 257.06719017 1831.71770096 C257.08776064 1837.86213598 257.09379283 1844.00642416 257.08932304 1850.15089035 C257.09013915 1852.3895625 257.09598092 1854.62824027 257.10761642 1856.86688232 C257.348782 1905.71958346 241.86611136 1948.38829911 207.4375 1983.5 C195.67490776 1995.15329986 182.45585229 2004.2216084 167.75 2011.75 C167.13302246 2012.06807617 166.51604492 2012.38615234 165.88037109 2012.71386719 C127.47956014 2032.24592995 81.93792651 2035.01705209 41.04736328 2021.88183594 C16.71352287 2013.58130727 -3.25226011 2000.88497041 -22.25 1983.75 C-22.99894531 1983.07453125 -23.74789062 1982.3990625 -24.51953125 1981.703125 C-54.60330304 1953.02857266 -70.63591901 1910.62416766 -72.25 1869.75 C-72.42134034 1862.20726094 -72.37690437 1854.66158543 -72.36352539 1847.11743164 C-72.3632428 1844.86894227 -72.36340266 1842.62045281 -72.3639679 1840.3719635 C-72.36425306 1834.31105339 -72.35840193 1828.25016334 -72.35139394 1822.18925786 C-72.34511345 1815.83918057 -72.3445529 1809.48910274 -72.34336853 1803.13902283 C-72.34062045 1792.49477758 -72.33438786 1781.85054019 -72.32543945 1771.20629883 C-72.31623858 1760.25024451 -72.30917088 1749.29419218 -72.30493164 1738.33813477 C-72.30453756 1737.32249356 -72.30453756 1737.32249356 -72.30413551 1736.28633434 C-72.30283032 1732.88902563 -72.30156665 1729.49171689 -72.30032361 1726.09440815 C-72.28998308 1697.97960037 -72.27231785 1669.86480064 -72.25 1641.75 C-72.80027359 1641.75444122 -73.35054718 1641.75888245 -73.91749573 1641.76345825 C-79.77643159 1641.80857711 -85.63531632 1641.83822234 -91.49438477 1641.85986328 C-93.66530367 1641.86976667 -95.83620982 1641.88329295 -98.00708008 1641.90087891 C-117.4448282 1642.05410947 -137.26906906 1641.97399723 -156.1875 1637 C-157.2283374 1636.73687012 -158.2691748 1636.47374023 -159.34155273 1636.20263672 C-173.83548232 1632.43118259 -187.09711132 1626.87407024 -200.25 1619.75 C-200.8776123 1619.41129883 -201.50522461 1619.07259766 -202.15185547 1618.72363281 C-242.46508753 1596.62010073 -270.54777993 1557.70926084 -283.35327148 1514.08129883 C-285.66166813 1505.75272274 -287.15971768 1497.31691324 -288.25 1488.75 C-288.33601471 1488.10170227 -288.42202942 1487.45340454 -288.51065063 1486.78546143 C-289.52218546 1478.12208632 -289.47891305 1469.42060738 -289.56640625 1460.7109375 C-289.5870145 1458.97644601 -289.60801188 1457.24195911 -289.62937927 1455.50747681 C-289.68420065 1450.9735285 -289.73378361 1446.43953792 -289.78222656 1441.90551758 C-289.83273586 1437.26640118 -289.88826728 1432.62734509 -289.94335938 1427.98828125 C-290.0504514 1418.90890586 -290.15200211 1409.82947779 -290.25 1400.75 C-291.48547577 1401.99322525 -291.48547577 1401.99322525 -292.74591064 1403.26156616 C-293.83738322 1404.35721698 -294.92891894 1405.4528049 -296.02050781 1406.54833984 C-296.56208527 1407.09364853 -297.10366272 1407.63895721 -297.66165161 1408.20079041 C-327.35623484 1437.97584293 -369.27552116 1453.89293027 -411 1454 C-422.99036008 1454.00326069 -434.48641655 1453.04917762 -446.25 1450.75 C-446.95092773 1450.61609863 -447.65185547 1450.48219727 -448.37402344 1450.34423828 C-489.14365481 1442.23161265 -525.70581688 1415.70373658 -548.95654297 1381.70751953 C-566.01747172 1355.88748806 -576.44803167 1325.45630418 -576.38142776 1294.37437725 C-576.38450672 1293.01793349 -576.38450672 1293.01793349 -576.38764787 1291.63408682 C-576.39329042 1288.61189421 -576.39186402 1285.58974758 -576.39044189 1282.56755066 C-576.39302711 1280.37551789 -576.39604071 1278.18348559 -576.3994453 1275.99145395 C-576.40750029 1269.97335918 -576.40930403 1263.95527634 -576.41004276 1257.93717682 C-576.41189596 1251.44404604 -576.4194447 1244.95092141 -576.42617798 1238.45779419 C-576.44072707 1223.52103775 -576.44628678 1208.5842826 -576.45086992 1193.64752035 C-576.45320848 1186.26006164 -576.45681144 1178.8726037 -576.4605653 1171.48514559 C-576.47339957 1146.17788122 -576.48411822 1120.87061728 -576.4875679 1095.56334972 C-576.48778953 1093.97558259 -576.48801132 1092.38781545 -576.48823325 1090.80004831 C-576.48845389 1089.20852792 -576.48867437 1087.61700752 -576.4888947 1086.02548712 C-576.48933724 1082.832828 -576.48978436 1079.64016888 -576.49023438 1076.44750977 C-576.49034377 1075.65591977 -576.49045316 1074.86432977 -576.49056586 1074.0487522 C-576.49419428 1048.39721776 -576.51010684 1022.74571163 -576.53342474 997.09418803 C-576.55805461 969.94955779 -576.57174223 942.80494372 -576.57293582 915.66030198 C-576.57310726 912.67690392 -576.57332269 909.69350586 -576.57357025 906.7101078 C-576.57362602 905.97555556 -576.57368179 905.24100332 -576.57373925 904.48419192 C-576.57488703 892.69369016 -576.58588581 880.90321757 -576.60045731 869.11272564 C-576.61486734 857.24711018 -576.61803398 845.38153187 -576.61001733 833.51591005 C-576.60612105 827.09526341 -576.60699042 820.67471434 -576.62107468 814.25407982 C-576.63387493 808.36467304 -576.63256257 802.47543656 -576.62048396 796.58602981 C-576.61853752 794.46684366 -576.62155608 792.34764519 -576.63032833 790.22847631 C-576.79685284 747.24367168 -563.78734286 706.92322947 -534.3046875 674.9921875 C-532.53310243 673.05893687 -530.85217659 671.08710666 -529.1875 669.0625 C-525.88170801 665.19975393 -522.17702336 661.96833868 -518.25 658.75 C-517.34765625 657.99847656 -516.4453125 657.24695313 -515.515625 656.47265625 C-481.29273758 628.98142815 -437.09100615 616.85113402 -393.55078125 621.24609375 C-353.10697246 626.18542677 -318.60264993 644.91022213 -290.25 673.75 C-290.23786972 672.93244484 -290.23786972 672.93244484 -290.22549438 672.09837341 C-288.82413187 579.29389243 -275.26604115 493.41710627 -233.25 409.75 C-232.60466309 408.46343506 -232.60466309 408.46343506 -231.94628906 407.15087891 C-214.66040229 372.95019192 -192.7503512 341.15829937 -168.25 311.75 C-167.7746582 311.17556152 -167.29931641 310.60112305 -166.80957031 310.00927734 C-160.41402637 302.28673635 -153.76568899 294.84010562 -146.90820312 287.52587891 C-145.12210219 285.61302582 -143.34971102 283.68801835 -141.578125 281.76171875 C-134.59535516 274.1977231 -127.4963631 266.99326065 -119.80078125 260.14794922 C-117.49853062 258.07258915 -115.24810637 255.94325928 -112.9909668 253.8190918 C-106.62376891 247.83804589 -100.07359509 242.20887607 -93.25 236.75 C-92.04664861 235.75705779 -90.84492985 234.76213491 -89.64453125 233.765625 C-74.87438853 221.54250639 -59.32167429 210.66133779 -43.30859375 200.12963867 C-42.3340625 199.48744385 -41.35953125 198.84524902 -40.35546875 198.18359375 C-39.49074951 197.61697021 -38.62603027 197.05034668 -37.73510742 196.46655273 C-35.13814888 194.67274042 -32.69158295 192.74880176 -30.25 190.75 C-36.58094064 178.96032598 -42.94902785 167.19654643 -49.5625 155.5625 C-56.19254313 143.89689171 -62.67493568 132.15251358 -69.1413269 120.39579773 C-71.59001496 115.94498038 -74.04703374 111.49882995 -76.5078125 107.0546875 C-80.43536165 99.96050226 -84.34898273 92.85881471 -88.25 85.75 C-88.75241211 84.83605469 -89.25482422 83.92210938 -89.77246094 82.98046875 C-91.04460976 80.65827799 -92.30617288 78.33077883 -93.5625 76 C-93.90531006 75.37577148 -94.24812012 74.75154297 -94.60131836 74.10839844 C-102.04172563 60.15739566 -103.38919128 44.13481276 -99.625 28.875 C-95.00428901 13.73377748 -85.85368356 1.23361384 -72.05859375 -6.7890625 C-48.24868132 -19.1741908 -20.85934263 -17.83898532 0 0 Z " fill="#FEFEFE" transform="translate(578.25,16.25)"/>
<path d="M0 0 C356.73 0 713.46 0 1081 0 C1081.04125 130.02 1081.0825 260.04 1081.125 394 C1081.14320801 435.09789062 1081.16141602 476.19578125 1081.18017578 518.5390625 C1081.18920898 568.61328125 1081.18920898 568.61328125 1081.19088745 592.03369141 C1081.19287853 609.51909663 1081.20150916 627.00448642 1081.21334685 644.48988731 C1081.22525511 662.3204755 1081.22967273 680.15105393 1081.2268899 697.98164594 C1081.22545519 708.5825806 1081.22943053 719.183479 1081.24161519 729.78440695 C1081.2491188 736.78808377 1081.24933724 743.79173652 1081.24367068 750.795415 C1081.24065202 754.78183586 1081.24075287 758.76818716 1081.24976516 762.75460052 C1081.34310679 806.68763845 1072.88362041 844.12191782 1041.75 876.6875 C1019.27680219 898.42544382 987.75403092 913.47022009 956.2043457 913.22705078 C954.68037926 913.22748886 954.68037926 913.22748886 953.12562561 913.22793579 C949.80892013 913.22655626 946.49244688 913.21106057 943.17578125 913.1953125 C940.85979841 913.19157747 938.54381397 913.18873281 936.22782898 913.18673706 C930.16325436 913.17913922 924.09877714 913.15952411 918.03424072 913.1373291 C911.83338742 913.11678738 905.63251822 913.10771761 899.43164062 913.09765625 C887.28771787 913.07627432 875.14386707 913.0421853 863 913 C863.00113916 913.58601626 863.00227832 914.17203252 863.003452 914.77580684 C863.07069391 949.56483352 863.12211396 984.35384714 863.15319599 1019.14292508 C863.15694778 1023.32697295 863.16083078 1027.51102069 863.16479492 1031.69506836 C863.16558185 1032.52798122 863.16636878 1033.36089408 863.16717956 1034.21904672 C863.18020726 1047.67735727 863.20384646 1061.13562908 863.23145839 1074.59391671 C863.25958616 1088.4196981 863.27619179 1102.24545931 863.28226548 1116.07126814 C863.28636669 1124.59160768 863.29928506 1133.1118377 863.3237494 1141.6321435 C863.33969777 1147.48744701 863.34437995 1153.34269451 863.34050413 1159.19801813 C863.33859659 1162.56825974 863.34304573 1165.93815871 863.35761642 1169.30839157 C863.42778084 1186.38431509 863.05325219 1202.77161023 857.3125 1219.0625 C857.05758789 1219.80016602 856.80267578 1220.53783203 856.54003906 1221.29785156 C848.5328825 1243.67388407 834.93733404 1262.57412785 816 1277 C815.20980469 1277.60585937 814.41960938 1278.21171875 813.60546875 1278.8359375 C798.38396963 1289.9933216 781.54299546 1296.8563994 763 1300 C762.07098877 1300.17273437 761.14197754 1300.34546875 760.18481445 1300.5234375 C744.64641667 1302.84853926 727.18214537 1302.12615797 712 1298 C710.85917969 1297.69835938 709.71835938 1297.39671875 708.54296875 1297.0859375 C701.37441969 1295.03301193 694.66603579 1292.32815217 688 1289 C687.10667969 1288.55914063 686.21335937 1288.11828125 685.29296875 1287.6640625 C656.97543945 1272.99890427 636.25670288 1247.07703776 626.35205078 1217.03466797 C620.66410438 1198.83788269 620.71771721 1180.92056144 620.77294922 1162.05297852 C620.77463256 1159.34143971 620.773283 1156.62990433 620.77206421 1153.91836548 C620.77102156 1148.10728153 620.77723278 1142.29624291 620.78853989 1136.48517036 C620.80487678 1128.08360812 620.81001122 1119.68206752 620.81251587 1111.28049111 C620.81688021 1097.64555916 620.83015487 1084.01065131 620.84912109 1070.37573242 C620.86751269 1057.14005653 620.88163013 1043.90438725 620.89013672 1030.66870117 C620.89067271 1029.8429078 620.89120871 1029.01711443 620.89176095 1028.16629702 C620.89592042 1021.70690532 620.89983405 1015.24751348 620.90367007 1008.78812158 C620.92249676 977.19205893 620.96274294 945.59605668 621 914 C567.87 914 514.74 914 460 914 C460.03480469 933.61953125 460.06960938 953.2390625 460.10546875 973.453125 C460.12080026 985.89453205 460.13538506 998.33593327 460.14648438 1010.77734375 C460.15235711 1017.31624372 460.1584183 1023.85514347 460.16479492 1030.39404297 C460.16598179 1031.62319119 460.16598179 1031.62319119 460.16719264 1032.87717068 C460.18020522 1046.06927856 460.20383698 1059.26134682 460.23145839 1072.45343128 C460.25961175 1086.01367419 460.27619714 1099.5738965 460.28226548 1113.13416743 C460.28636144 1121.48713276 460.29925071 1129.83998609 460.3237494 1138.1929169 C460.33972951 1143.93751178 460.34437293 1149.6820496 460.34050413 1155.42666504 C460.33860142 1158.730447 460.34300253 1162.0338796 460.35761642 1165.33765221 C460.52030267 1204.04446341 452.28964019 1237.67328489 424.84375 1266.1875 C402.92936404 1287.86106853 373.55821067 1301.18880219 342.66503906 1301.18530273 C340.53429446 1301.1874652 338.40408902 1301.20557687 336.2734375 1301.22460938 C315.20357045 1301.31358491 297.3320946 1296.03435559 279 1286 C278.05125 1285.48308594 277.1025 1284.96617188 276.125 1284.43359375 C269.92580003 1280.87874002 264.46882257 1276.58198648 259 1272 C258.360625 1271.484375 257.72125 1270.96875 257.0625 1270.4375 C241.86031008 1257.94998685 230.99041827 1239.68090522 224.125 1221.4375 C223.85099365 1220.71949219 223.5769873 1220.00148438 223.29467773 1219.26171875 C217.6239835 1203.38447867 217.57277631 1187.93157895 217.65180314 1171.2488066 C217.66489703 1167.77460136 217.66036472 1164.30041014 217.65809631 1160.82618713 C217.65653192 1154.82355261 217.66585319 1148.82101677 217.68280983 1142.81840706 C217.70730939 1134.13992005 217.71501623 1125.46148021 217.7187738 1116.78296237 C217.72532121 1102.69878714 217.74523566 1088.61466437 217.77368164 1074.53051758 C217.80126669 1060.85831971 217.82247844 1047.18613614 217.83520508 1033.51391602 C217.83638733 1032.24736718 217.83638733 1032.24736718 217.83759347 1030.9552315 C217.84150891 1026.71881486 217.84529996 1022.48239813 217.84902918 1018.24598134 C217.88007175 983.16395018 217.93286061 948.08197995 218 913 C216.76353226 913.00444122 215.52706451 913.00888245 214.25312805 913.01345825 C202.55785349 913.05413377 190.86259343 913.0840463 179.16726398 913.10362434 C173.15566861 913.11402819 167.14413068 913.12812492 161.13256836 913.15087891 C155.32296884 913.17272897 149.51342432 913.18459414 143.70378685 913.18975449 C141.49560875 913.19342851 139.28743341 913.2006025 137.07927895 913.21146011 C114.91327222 913.3160428 114.91327222 913.3160428 104 911 C102.96003624 910.79056007 102.96003624 910.79056007 101.89906311 910.57688904 C81.5379709 906.16751366 62.69536294 896.64127182 47 883 C46.16984375 882.29101562 45.3396875 881.58203125 44.484375 880.8515625 C18.5441325 858.17374314 2.63731335 826.36446793 0 792 C-0.13822353 787.50748419 -0.13251558 783.01796954 -0.12304783 778.52361202 C-0.12378837 777.16192852 -0.12496791 775.80024519 -0.12654402 774.4385624 C-0.12960286 770.70088747 -0.12644686 766.96323988 -0.12226575 763.22556699 C-0.11882927 759.16712632 -0.12120618 755.1086884 -0.12284851 751.05024719 C-0.12492596 743.93126904 -0.12327965 736.81229925 -0.11921513 729.69332206 C-0.11311291 718.97015451 -0.1128453 708.24699202 -0.11368043 697.52382305 C-0.11492259 679.55364596 -0.11162875 661.58347252 -0.10557556 643.61329651 C-0.09740526 619.3151537 -0.09547276 595.01701714 -0.09460449 570.71887207 C-0.08935111 512.2917473 -0.07539004 453.86462358 -0.0625 395.4375 C-0.041875 264.943125 -0.02125 134.44875 0 0 Z " fill="#A4C639" transform="translate(332,701)"/>
<path d="M0 0 C7.49826183 5.40572364 11.26680307 13.23889516 15.4375 21.25 C16.68269646 23.60203776 17.92879261 25.95359942 19.17578125 28.3046875 C19.7785791 29.44647461 20.38137695 30.58826172 21.00244141 31.76464844 C23.16114778 35.82934679 25.37789172 39.85866879 27.625 43.875 C28.20616577 44.91599854 28.20616577 44.91599854 28.79907227 45.97802734 C29.62797248 47.46216296 30.45733706 48.9460393 31.28710938 50.4296875 C34.15913382 55.57289446 37.01530987 60.72492849 39.875 65.875 C41.17051737 68.20706214 42.4660841 70.53909678 43.76171875 72.87109375 C44.41846049 74.05322074 45.07519877 75.23534964 45.73193359 76.41748047 C46.05611267 77.00100281 46.38029175 77.58452515 46.71429443 78.18572998 C53.28869629 90.01965332 59.86309814 101.85357666 66.4375 113.6875 C67.0574585 114.80326416 67.67741699 115.91902832 68.31616211 117.06860352 C69.55450893 119.2979509 70.79231028 121.52760138 72.02954102 123.75756836 C74.9711673 129.05793234 77.91852837 134.35488181 80.88497925 139.64138794 C82.29442858 142.15393999 83.70080455 144.66820582 85.10693359 147.18261719 C85.78166144 148.38709539 86.45791379 149.59072095 87.13574219 150.79345703 C88.07214784 152.45522766 89.00301282 154.12011682 89.93359375 155.78515625 C90.46654053 156.73398682 90.9994873 157.68281738 91.54858398 158.66040039 C92.6875 160.9375 92.6875 160.9375 92.6875 162.9375 C93.45078613 162.61587891 94.21407227 162.29425781 95.00048828 161.96289062 C120.82646142 151.1075423 120.82646142 151.1075423 133.6875 146.4375 C134.5139502 146.13650391 135.34040039 145.83550781 136.19189453 145.52539062 C169.58351115 133.59742001 205.01588016 124.97068256 240.15771484 120.39794922 C243.90583402 119.90901902 247.64990732 119.39387942 251.39453125 118.87890625 C297.40203186 112.64452223 343.52334115 112.18001345 389.6875 116.9375 C390.9461084 117.06560059 392.2047168 117.19370117 393.50146484 117.32568359 C404.49780735 118.4753627 415.36059734 119.85166568 426.16796875 122.2109375 C429.22227753 122.84146073 432.26310772 123.32078572 435.34960938 123.7578125 C451.38926646 126.09849211 467.04757559 130.76831427 482.6875 134.9375 C483.65292725 135.18838379 484.61835449 135.43926758 485.61303711 135.69775391 C493.97189439 137.90195967 502.17300848 140.59246292 510.375 143.3125 C511.53497498 143.69601624 511.53497498 143.69601624 512.71838379 144.08728027 C529.35612699 149.61385408 545.55150283 156.09818135 561.6875 162.9375 C561.97923096 162.02121826 562.27096191 161.10493652 562.5715332 160.16088867 C563.4280096 157.68701908 564.2622472 155.61715339 565.54296875 153.36328125 C565.90994873 152.71045166 566.27692871 152.05762207 566.6550293 151.38500977 C567.05761963 150.68045654 567.46020996 149.97590332 567.875 149.25 C568.78158953 147.64081624 569.68781636 146.0314281 570.59375 144.421875 C571.33625 143.10799805 571.33625 143.10799805 572.09375 141.76757812 C575.04575105 136.52560568 577.95683541 131.2608579 580.875 126 C582.17040609 123.66787584 583.46596088 121.33583491 584.76171875 119.00390625 C585.4184674 117.8217831 586.07520568 116.6396542 586.73193359 115.45751953 C592.45703125 105.15234375 592.45703125 105.15234375 594.32324219 101.79321289 C595.57004221 99.54894019 596.81678666 97.30463661 598.06347656 95.06030273 C601.17513541 89.45875046 604.28773145 83.85772318 607.40234375 78.2578125 C608.6433128 76.02608817 609.88419807 73.79431725 611.125 71.5625 C612.04708252 69.90395996 612.04708252 69.90395996 612.98779297 68.21191406 C616.58875998 61.72998595 620.17715081 55.24132055 623.75213623 48.74504089 C626.4275761 43.88371024 629.11211078 39.027459 631.79986572 34.17292786 C633.99980893 30.19496488 636.17313503 26.20316967 638.33984375 22.20703125 C639.47607397 20.13775251 640.61276738 18.06872801 641.75 16 C642.24967285 15.06510742 642.7493457 14.13021484 643.26416016 13.16699219 C646.62750946 7.09787509 650.35629551 2.10310224 656.6875 -1.0625 C662.55750746 -1.65631502 668.1748709 -1.88894408 673.18359375 1.55078125 C677.38472839 5.42455475 679.7619783 9.30026648 680.140625 15.04296875 C679.98415828 20.99053073 677.35307627 25.46621231 674.5 30.5625 C673.95827148 31.56394043 673.41654297 32.56538086 672.85839844 33.59716797 C671.15743114 36.7237591 669.42780946 39.83265773 667.6875 42.9375 C667.16397949 43.87464844 666.64045898 44.81179687 666.10107422 45.77734375 C663.47562404 50.46475718 660.82577162 55.13778501 658.1640625 59.8046875 C654.31741355 66.56446129 650.56176047 73.37346798 646.8125 80.1875 C645.45066639 82.66153848 644.08867113 85.13548792 642.7265625 87.609375 C642.38939209 88.22183075 642.05222168 88.8342865 641.70483398 89.46530151 C638.21627773 95.79894173 634.70300006 102.11878164 631.1875 108.4375 C627.34173223 115.35065904 623.50153696 122.26674884 619.68359375 129.1953125 C619.34865402 129.80313568 619.01371429 130.41095886 618.66862488 131.03720093 C617.32038796 133.48430348 615.97235498 135.93151789 614.62496948 138.37908936 C610.97585429 145.00669696 607.31124371 151.62481693 603.6015625 158.21875 C603.27432693 158.80079193 602.94709137 159.38283386 602.60993958 159.98251343 C601.05679185 162.74390852 599.50034971 165.50336821 597.93920898 168.26025391 C597.39337158 169.22882324 596.84753418 170.19739258 596.28515625 171.1953125 C595.56598022 172.46592529 595.56598022 172.46592529 594.83227539 173.76220703 C593.5716044 176.01523837 593.5716044 176.01523837 592.6875 178.9375 C593.45320313 179.13988281 594.21890625 179.34226563 595.0078125 179.55078125 C600.20394816 181.50898524 604.79318338 184.3004868 609.5625 187.125 C610.6138916 187.74431396 611.6652832 188.36362793 612.74853516 189.00170898 C630.59710824 199.5693492 648.14656708 210.39906443 664.6875 222.9375 C665.44788574 223.51387207 666.20827148 224.09024414 666.99169922 224.68408203 C679.78117179 234.42578259 692.13460778 244.55168523 703.95703125 255.453125 C705.40525836 256.7708252 706.85882447 258.0835475 708.34887695 259.35375977 C714.38742505 264.50980519 719.98784354 270.08595702 725.58764648 275.70727539 C727.2467732 277.37176277 728.91118051 279.03083447 730.57617188 280.68945312 C736.156913 286.26639038 741.5891752 291.91112937 746.6875 297.9375 C747.63632242 299.02102088 748.58679398 300.10310028 749.5390625 301.18359375 C757.33958425 310.12728343 764.58607479 319.43261811 771.6875 328.9375 C772.17637695 329.58895996 772.66525391 330.24041992 773.16894531 330.91162109 C810.06045778 380.16317336 838.57765944 437.10000599 852.98876953 497.046875 C853.73157957 500.11985574 854.50309965 503.18479705 855.27734375 506.25 C858.40153972 518.74678387 861.02389196 531.16379923 862.6875 543.9375 C862.81753418 544.92282715 862.94756836 545.9081543 863.08154297 546.92333984 C865.9419101 568.87977402 866.6875 589.55596004 866.6875 611.9375 C510.6175 611.9375 154.5475 611.9375 -212.3125 611.9375 C-212.3125 590.73635856 -212.16418898 570.76797365 -209.3125 549.9375 C-209.1568457 548.7731543 -209.00119141 547.60880859 -208.84082031 546.40917969 C-199.01816715 475.29787628 -171.46930656 405.7229046 -130.3125 346.9375 C-129.90870117 346.35790527 -129.50490234 345.77831055 -129.08886719 345.18115234 C-116.80867289 327.59357868 -103.63121542 310.4339365 -88.9453125 294.78125 C-86.99802946 292.67795318 -85.12874712 290.5567155 -83.26953125 288.37890625 C-78.60654592 283.02721441 -73.56872714 278.04411918 -68.54272461 273.03735352 C-66.87823723 271.3782268 -65.21916553 269.71381949 -63.56054688 268.04882812 C-57.98389866 262.46832403 -52.34274782 257.03096131 -46.3125 251.9375 C-45.19417167 250.96485182 -44.07695434 249.99092452 -42.9609375 249.015625 C-14.44479632 224.31226294 16.60033678 203.25467338 49.375 184.625 C50.37337891 184.05547607 51.37175781 183.48595215 52.40039062 182.89916992 C53.32400391 182.37943604 54.24761719 181.85970215 55.19921875 181.32421875 C56.01865967 180.86233154 56.83810059 180.40044434 57.68237305 179.92456055 C59.6875 178.9375 59.6875 178.9375 61.6875 178.9375 C56.83981487 168.84669923 51.56838698 159.05664519 46.02392578 149.33227539 C41.57609188 141.52745492 37.20681972 133.68202722 32.875 125.8125 C32.54074005 125.20558319 32.2064801 124.59866638 31.86209106 123.97335815 C30.15404257 120.87198117 28.44682048 117.77015066 26.74023438 114.66796875 C23.37273773 108.54713776 19.99923801 102.42961658 16.625 96.3125 C16.29399292 95.71236084 15.96298584 95.11222168 15.62194824 94.49389648 C10.8036 85.75898907 5.97039721 77.03244058 1.125 68.3125 C0.21451904 66.6728125 0.21451904 66.6728125 -0.71435547 65 C-3.60173109 59.8028771 -6.49434775 54.60882245 -9.40229797 49.42318726 C-10.77395081 46.97622522 -12.14270117 44.52764552 -13.51119995 42.07891846 C-14.46825119 40.3692169 -15.42948942 38.66186121 -16.39086914 36.95458984 C-26.45545277 18.93816937 -26.45545277 18.93816937 -25.3125 10.9375 C-20.51040129 -0.24015104 -11.43504912 -3.66784594 0 0 Z " fill="#A4C639" transform="translate(545.3125,46.0625)"/>
<path d="M0 0 C0.67643555 0.14002441 1.35287109 0.28004883 2.04980469 0.42431641 C25.90044724 5.4955323 45.25678835 16.26728951 63 33 C63.67675781 33.61230469 64.35351562 34.22460938 65.05078125 34.85546875 C78.17606104 47.19165357 87.59956216 64.13449252 93.375 81.0625 C93.60155273 81.72088867 93.82810547 82.37927734 94.06152344 83.05761719 C98.77865416 97.87579174 99.43503224 112.30337382 99.38095093 127.70706177 C99.38441348 129.870714 99.38918203 132.03436446 99.39513266 134.19801128 C99.40759076 140.10526306 99.4014959 146.01236839 99.39217401 151.91962051 C99.38536226 158.30565098 99.39587543 164.69165696 99.40411377 171.0776825 C99.41666338 182.8532715 99.41560309 194.62880875 99.40737936 206.40440024 C99.3998161 217.28858578 99.39787028 228.17275436 99.4014473 239.05694199 C99.40167645 239.78048147 99.40190561 240.50402095 99.40214171 241.24948587 C99.40307582 244.1870449 99.40403103 247.12460392 99.405021 250.06216294 C99.41418862 277.59427337 99.40589357 305.12635435 99.38973031 332.65846024 C99.37550363 357.07733564 99.37676085 381.49616408 99.39111328 405.91503906 C99.40720794 433.3895257 99.41352927 460.86398632 99.40427649 488.33847702 C99.40331444 491.27237248 99.40237591 494.20626795 99.4014473 497.14016342 C99.40121006 497.86249011 99.40097283 498.5848168 99.40072841 499.32903218 C99.39732776 510.19773644 99.40128496 521.0664218 99.40888596 531.93512344 C99.41749623 544.30821226 99.41496464 556.68123784 99.39904372 569.05432124 C99.39119593 575.3598195 99.38800933 581.66522288 99.39799118 587.97072029 C99.40701193 593.75695475 99.40188517 599.5430075 99.38605852 605.32922576 C99.38274157 607.40853117 99.384334 609.48785233 99.39168589 611.56714739 C99.42590517 622.06050318 99.05352843 632.33967083 97.67540932 642.75196648 C97.56074547 643.62739765 97.44608162 644.50282882 97.32794311 645.4047882 C93.73255637 669.96368406 80.78370969 691.20270926 64 709 C63.38769531 709.67675781 62.77539062 710.35351562 62.14453125 711.05078125 C42.21698632 732.25300923 11.8907132 743.98924246 -16.7578125 745.3125 C-47.92972045 746.21832458 -77.32312335 736.52773542 -101 716 C-101.85722656 715.29875 -102.71445313 714.5975 -103.59765625 713.875 C-119.97384766 699.92578372 -130.50735829 682.00794375 -137.375 661.875 C-137.70927002 660.89781006 -138.04354004 659.92062012 -138.38793945 658.91381836 C-143.09498777 644.40718762 -143.29348795 630.3960149 -143.27415466 615.30529785 C-143.27861222 613.10639944 -143.28392796 610.90750263 -143.29002339 608.70860815 C-143.3041515 602.69006971 -143.30586766 596.67158304 -143.30542648 590.6530304 C-143.30707926 584.15244487 -143.32015434 577.6518804 -143.33161926 571.15130615 C-143.35371498 557.68702578 -143.36187113 544.22275796 -143.36665427 530.75846185 C-143.36691544 530.02746054 -143.36717662 529.29645922 -143.36744571 528.54330635 C-143.36770598 527.81076276 -143.36796626 527.07821916 -143.36823442 526.32347728 C-143.37132247 518.18868741 -143.37782924 510.05390078 -143.3844471 501.91911316 C-143.40408834 477.32790537 -143.42049653 452.73670106 -143.42332363 428.14548492 C-143.42341769 427.35972534 -143.42351175 426.57396576 -143.42360866 425.76439528 C-143.42398712 422.58035053 -143.42435112 419.39630578 -143.42471164 416.21226103 C-143.42498336 413.81598652 -143.42526004 411.41971201 -143.42553711 409.0234375 C-143.42562513 408.23161496 -143.42571315 407.43979243 -143.42580384 406.62397527 C-143.42870798 381.75579227 -143.45079615 356.88768708 -143.48706055 332.01953125 C-143.52784709 304.04992765 -143.55148264 276.08037705 -143.55178314 248.11074209 C-143.55187996 245.12429904 -143.55204667 242.13785601 -143.55226326 239.15141296 C-143.55230737 238.416131 -143.55235149 237.68084903 -143.55239694 236.92328579 C-143.5535136 225.12574117 -143.57087557 213.32827494 -143.59408258 201.53075551 C-143.61700149 189.65886959 -143.62110127 177.78708881 -143.60653328 165.91518885 C-143.59938244 159.49230171 -143.60014344 153.0696843 -143.62294388 146.6468277 C-143.64366024 140.75434113 -143.64081576 134.86232952 -143.62006903 128.96984738 C-143.61659829 126.85076103 -143.62138012 124.73163951 -143.63577347 122.61259919 C-143.85091496 88.72456328 -131.83660063 58.25392416 -108.55078125 33.51953125 C-91.49900887 16.67666266 -70.1435985 5.66176468 -47 0 C-46.02289062 -0.24621094 -45.04578125 -0.49242187 -44.0390625 -0.74609375 C-29.96875851 -3.6690079 -14.00905228 -3.00591585 0 0 Z " fill="#A4C639" transform="translate(1601,682)"/>
<path d="M0 0 C0.92167969 0.75796875 1.84335938 1.5159375 2.79296875 2.296875 C20.94458161 17.96512193 33.27138028 39.34894002 39.8125 62.25 C40.1233252 63.33051636 40.1233252 63.33051636 40.44042969 64.43286133 C42.75063203 72.99093382 43.15048726 81.63635556 43.13142776 90.46299171 C43.1334804 91.36457467 43.13553303 92.26615762 43.13764787 93.19506127 C43.14328116 96.20196444 43.14186519 99.20882127 43.14044189 102.21572876 C43.14302763 104.39910095 43.14604137 106.58247268 43.1494453 108.76584375 C43.1574939 114.75519692 43.15930367 120.74453808 43.16004276 126.73389602 C43.16189702 133.19762094 43.16944615 139.66133969 43.17617798 146.12506104 C43.19072037 160.98952355 43.19628551 175.85398475 43.20086992 190.71845309 C43.20320873 198.06894998 43.20681166 205.41944609 43.2105653 212.76994237 C43.22339729 237.94748601 43.23411737 263.12502922 43.2375679 288.30257607 C43.23778953 289.88182633 43.23801132 291.46107659 43.23823325 293.04032686 C43.23845389 294.62331078 43.23867437 296.2062947 43.2388947 297.78927863 C43.23933724 300.96482507 43.23978436 304.14037152 43.24023438 307.31591797 C43.24039846 308.4969364 43.24039846 308.4969364 43.24056586 309.70181379 C43.24419616 335.22911891 43.26011699 360.75639564 43.28342474 386.28368989 C43.3080411 413.29373522 43.32174155 440.30376432 43.32293582 467.3138212 C43.32310726 470.28084271 43.32332269 473.24786421 43.32357025 476.21488571 C43.32362602 476.94541169 43.32368179 477.67593768 43.32373925 478.42860081 C43.32488802 490.16497747 43.33589504 501.90132487 43.35045731 513.63769167 C43.36484966 525.44150558 43.36779207 537.24527895 43.36001733 549.04909928 C43.35611504 555.43887844 43.35702008 561.82855952 43.37107468 568.21832657 C43.38383822 574.07479376 43.38259442 579.93108942 43.37048396 585.78755645 C43.36853125 587.89923918 43.37158556 590.01093415 43.38032833 592.12259968 C43.44132668 607.8597741 42.02839587 622.35731253 36.9375 637.375 C36.64149902 638.25075684 36.34549805 639.12651367 36.04052734 640.02880859 C31.13038585 653.88876479 23.83673285 666.07807598 14 677 C13.31679688 677.825 12.63359375 678.65 11.9296875 679.5 C-6.59264854 701.3713931 -36.62553684 716.17772719 -65 719 C-98.34225736 721.22110036 -129.93876866 712.6089512 -155.609375 690.78125 C-158.11612947 688.56315211 -160.56495415 686.29636652 -163 684 C-163.67675781 683.38769531 -164.35351562 682.77539062 -165.05078125 682.14453125 C-178.02006226 669.95496653 -186.81481703 653.69826112 -192.8125 637.125 C-193.09053467 636.37202637 -193.36856934 635.61905273 -193.6550293 634.84326172 C-198.92686059 619.49156061 -199.43809209 604.02849401 -199.38768005 587.96940613 C-199.39186062 585.78284108 -199.39734208 583.5962782 -199.40399987 581.40971929 C-199.41837824 575.44386257 -199.41423363 569.4781449 -199.40683305 563.51228082 C-199.40208477 557.0615444 -199.41462588 550.61083735 -199.42485046 544.16011047 C-199.44161072 532.26733647 -199.44349069 520.37460431 -199.43854547 508.48182127 C-199.43397791 497.49100646 -199.4346004 486.50020798 -199.44038582 475.50939369 C-199.4411427 474.03175362 -199.44189868 472.55411355 -199.44265376 471.07647348 C-199.44379903 468.84945517 -199.44494892 466.62243686 -199.44611301 464.39541856 C-199.45680867 443.7068621 -199.46155287 423.01831104 -199.45364285 402.32975292 C-199.45334567 401.55086362 -199.4530485 400.77197433 -199.45274232 399.96948232 C-199.4502937 393.64546223 -199.44768195 387.3214422 -199.44505819 380.99742218 C-199.43495805 356.33671587 -199.44331052 331.67607767 -199.46655273 307.01538086 C-199.49266072 279.26952463 -199.50546384 251.52370939 -199.49836498 223.77784044 C-199.49764899 220.8159115 -199.49697459 217.85398256 -199.49632454 214.8920536 C-199.49615473 214.16282282 -199.49598492 213.43359203 -199.49580997 212.68226334 C-199.49351303 201.70443689 -199.50145493 190.72664867 -199.51461601 179.7488308 C-199.52956812 167.25529276 -199.52994366 154.76185029 -199.5125451 142.26831385 C-199.50405155 135.9002454 -199.50184549 129.532347 -199.51719666 123.16428757 C-199.53110247 117.32325686 -199.52620499 111.48254094 -199.50695742 105.64152817 C-199.50321515 103.5400802 -199.50606754 101.43860665 -199.51656907 99.33718159 C-199.68130058 63.81882574 -188.46444148 33.94186778 -164 8 C-163.38769531 7.32324219 -162.77539062 6.64648438 -162.14453125 5.94921875 C-120.02668777 -38.86272986 -45.71550138 -38.02081303 0 0 Z " fill="#A4C639" transform="translate(244,708)"/>
<path d="M0 0 C12.177507 6.29379205 20.24243672 15.30133701 24.9765625 28.1875 C28.80768009 40.33019475 27.13390664 52.01776834 21.66796875 63.37890625 C19.90255554 66.3089376 17.97015568 68.85452433 15.66796875 71.37890625 C14.90484375 72.24515625 14.14171875 73.11140625 13.35546875 74.00390625 C9.68993829 77.24321224 5.8755285 79.8898312 1.66796875 82.37890625 C0.98605469 82.79785156 0.30414062 83.21679688 -0.3984375 83.6484375 C-9.83242026 88.42449675 -22.96261203 87.89415756 -33.04296875 85.49609375 C-46.510724 80.26825045 -54.93468864 70.82124193 -61.1328125 58.1484375 C-65.34671123 48.41666486 -64.81247261 35.06959626 -61.26953125 25.25390625 C-55.29453206 12.02834624 -45.70130242 3.60566493 -32.33203125 -1.62109375 C-22.82736743 -4.78931502 -9.15007259 -3.70390809 0 0 Z " fill="#FEFEFD" transform="translate(1140.33203125,373.62109375)"/>
<path d="M0 0 C11.91374895 6.07815216 20.35289856 15.34582289 24.9375 27.85546875 C26.45386608 32.5716986 26.85277769 36.94072841 26.8125 41.875 C26.80677979 42.69983887 26.80105957 43.52467773 26.79516602 44.37451172 C26.43197429 56.93825494 21.27344383 66.43367032 12.66015625 75.33203125 C2.17435929 85.07765431 -9.99186213 87.21117858 -23.74609375 86.9375 C-34.84124492 86.43536229 -42.30255008 81.49709755 -50.3125 74.25 C-56.40125978 67.52031813 -60.03973066 61.36942797 -62.6875 52.625 C-62.88085938 51.99078125 -63.07421875 51.3565625 -63.2734375 50.703125 C-65.60961483 38.97815952 -63.11421024 27.65316255 -56.75 17.6875 C-54.33644305 14.33029672 -51.76905215 11.39839693 -48.6875 8.625 C-47.800625 7.8 -46.91375 6.975 -46 6.125 C-33.59751908 -4.08120826 -14.76529134 -5.83705838 0 0 Z " fill="#FEFEFD" transform="translate(641.6875,373.375)"/>
</svg>
