<?xml version="1.0" encoding="UTF-8"?>
<svg version="1.1" xmlns="http://www.w3.org/2000/svg" width="1024" height="1024">
<path d="M0 0 C0 159.72 0 319.44 0 484 C-267.08201893 486.38466088 -267.08201893 486.38466088 -346.31835938 487.00537109 C-357.38343635 487.0921026 -368.44849168 487.18123784 -379.51353711 487.27188183 C-390.83012349 487.36454664 -402.14672613 487.45490183 -413.46334696 487.54327476 C-420.57357227 487.59884309 -427.68378189 487.65578658 -434.79397106 487.71581292 C-473.8652581 488.03306799 -512.924478 488 -552 488 C-552 353.36 -552 218.72 -552 80 C-542.03679944 78.24178814 -532.11685509 76.49849628 -522.11025238 75.05170822 C-520.9727493 74.88676054 -520.9727493 74.88676054 -519.81226635 74.71848059 C-519.02472627 74.60432633 -518.23718618 74.49017207 -517.42578125 74.37255859 C-515.71567934 74.12273045 -514.00561015 73.87267816 -512.29557037 73.62242508 C-507.62458362 72.93950775 -502.95314445 72.25973194 -498.28162193 71.58049059 C-493.17319298 70.83713529 -488.06520149 70.0907847 -482.95715332 69.34481812 C-474.02204951 68.0403655 -465.08667699 66.73776684 -456.15112305 65.43640137 C-443.05923787 63.52969429 -429.9677813 61.62005742 -416.87642574 59.70971775 C-395.41322859 56.57778968 -373.94973412 53.44790386 -352.48606646 50.3192023 C-327.84334331 46.72708822 -303.20085348 43.13337777 -278.55859375 39.53808594 C-277.76783015 39.42271415 -276.97706654 39.30734235 -276.1623404 39.18847445 C-258.4547634 36.60494198 -240.74722361 34.02115446 -223.03968298 31.4373727 C-218.23758794 30.7366792 -213.43549258 30.03598781 -208.63339704 29.33529767 C-204.64819786 28.7538035 -200.66299906 28.17230663 -196.67780113 27.59080386 C-175.47160353 24.49649426 -154.26530194 21.40289846 -133.05890098 18.30998281 C-127.77842369 17.53982975 -122.4979545 16.76962115 -117.21749115 15.99937248 C-116.48530049 15.89256959 -115.75310984 15.7857667 -114.99873158 15.67572736 C-111.36001276 15.14495387 -107.72129506 14.61417268 -104.08257818 14.08338583 C-96.46244896 12.97183345 -88.84229349 11.86046129 -81.22210187 10.74933676 C-75.46547046 9.90992582 -69.70888542 9.07019723 -63.95231628 8.23035932 C-61.63892144 7.89290456 -59.32551189 7.55555056 -57.01208496 7.21831584 C-54.86389822 6.90515942 -52.71573831 6.59181891 -50.56760693 6.278283 C-48.50600801 5.97755355 -46.44431422 5.6774737 -44.38251972 5.37808812 C-38.81973169 4.56807148 -33.26100033 3.73611209 -27.70500183 2.8806839 C-26.48794099 2.69513703 -25.27088016 2.50959015 -24.01693869 2.31842065 C-21.68077711 1.96166232 -19.34531843 1.60025798 -17.01072931 1.23335052 C-15.94956069 1.0720535 -14.88839208 0.91075649 -13.79506683 0.74457169 C-12.86737661 0.60060652 -11.93968638 0.45664135 -10.98388433 0.30831361 C-7.34054455 -0.06813906 -3.66273687 0 0 0 Z " fill="#00ADEF" transform="translate(1017,0)"/>
<path d="M0 0 C46.18706485 -0.02335759 92.37412903 -0.04073808 138.56119871 -0.05106533 C144.12787597 -0.05231469 149.69455322 -0.05360914 155.26123047 -0.05493164 C156.368549 -0.05519395 157.47586754 -0.05545626 158.61674118 -0.05572652 C176.08896679 -0.05997073 193.5611888 -0.06778901 211.03341234 -0.0771528 C229.22742304 -0.08681527 247.42143198 -0.09212057 265.61544514 -0.09408849 C274.65610063 -0.09516155 283.69675279 -0.09638743 292.73740602 -0.1033227 C379.49602804 -0.16860104 466.23952309 0.48356859 553 1 C553 160.06 553 319.12 553 483 C525.25180281 479.53147535 525.25180281 479.53147535 512.58783627 477.73116207 C511.6506453 477.59817553 510.71345434 477.465189 509.74786365 477.32817256 C508.77597099 477.19022718 507.80407833 477.0522818 506.80273438 476.91015625 C504.68430902 476.61095549 502.5658596 476.31192502 500.44738865 476.01304722 C494.70452721 475.20235242 488.96200009 474.38931184 483.21952939 473.57585454 C477.00254672 472.69562551 470.78524337 471.81766685 464.56797791 470.93943787 C453.82703925 469.42191714 443.0862898 467.90306438 432.34567261 466.38327026 C416.09097425 464.08325688 399.83591583 461.7857953 383.58078085 459.48887001 C377.05087111 458.56615377 370.52097215 457.64336127 363.99107361 456.7205658 C363.26645253 456.61816418 362.54183145 456.51576257 361.79525215 456.41025788 C350.65577338 454.83604442 339.51635338 453.26141554 328.37696838 451.6865387 C272.29721313 443.75807997 216.2161991 435.83855109 160.13456535 427.92339134 C145.78731553 425.89846198 131.44011371 423.87319349 117.0930131 421.84720718 C106.14106226 420.3006582 95.18906281 418.75445379 84.23701292 417.2086063 C78.32186662 416.37368986 72.40674301 415.53861352 66.49168205 414.70309258 C61.06727127 413.93688351 55.6427912 413.17116689 50.21825886 412.40581894 C48.27142038 412.13105487 46.32460594 411.8561203 44.37782001 411.58098412 C41.70018569 411.20258502 39.02246651 410.82479302 36.3447113 410.44725037 C35.50340648 410.32840197 34.66210166 410.20955358 33.79530275 410.08710372 C29.16587214 409.43572656 24.53457907 408.80132692 19.90052986 408.18361092 C18.89175917 408.04853128 17.88298847 407.91345165 16.84364897 407.7742787 C14.89795937 407.51450088 12.95193859 407.25718808 11.00555176 407.00268692 C10.1323792 406.88599138 9.25920665 406.76929583 8.35957432 406.64906406 C7.20317742 406.4968651 7.20317742 406.4968651 6.02341896 406.34159142 C4 406 4 406 1 405 C0.86326651 380.24895016 0.73309645 355.49787135 0.60884857 330.7467556 C0.55090544 319.22829038 0.49150665 307.7098381 0.42724609 296.19140625 C-0.12158485 197.46128281 -0.05235443 98.73129279 0 0 Z " fill="#00ADEF" transform="translate(464,537)"/>
<path d="M0 0 C33.31748474 0 33.31748474 0 43.91680908 0.06919861 C45.17231654 0.07666015 46.427824 0.08412169 47.72137713 0.09180933 C51.09502041 0.11189088 54.46865613 0.13304056 57.84229136 0.15442693 C61.52691671 0.1775855 65.21154842 0.19969441 68.8961792 0.2219696 C76.91151072 0.27062765 84.92683356 0.32061948 92.94215488 0.37092662 C97.99279472 0.40262337 103.04343624 0.43404631 108.09407806 0.46542549 C122.20307949 0.55313405 136.31207872 0.64117843 150.4210701 0.73049068 C151.31901749 0.73617434 152.21696488 0.74185801 153.14212279 0.7477139 C154.49150815 0.75625555 154.49150815 0.75625555 155.86815381 0.76496977 C157.68977181 0.77650056 159.51138981 0.78803082 161.33300781 0.79956055 C162.68826506 0.80813893 162.68826506 0.80813893 164.07090124 0.8168906 C178.5888136 0.90872048 193.10673969 0.99813465 207.62467375 1.08645802 C222.69467303 1.17817649 237.76465788 1.27203251 252.83463168 1.36784559 C261.22860656 1.42116806 269.62258423 1.47372102 278.01657867 1.5238781 C285.19026554 1.56675309 292.36393645 1.61170091 299.53759661 1.65883821 C303.15586148 1.68256264 306.77412496 1.70565305 310.39241028 1.7260437 C345.5980444 1.92912546 380.79617112 2.51775577 416 3 C416 135.66 416 268.32 416 405 C395.32461206 402.70273467 395.32461206 402.70273467 386.1446991 401.42453003 C385.0848102 401.27893524 384.0249213 401.13334046 382.93291456 400.98333371 C379.44739787 400.50396876 375.96234936 400.02128727 372.47729492 399.53857422 C369.94532534 399.18965605 367.4133268 398.84094802 364.88130188 398.49243164 C359.4403158 397.74305191 353.99952931 396.99224821 348.55891991 396.24013901 C340.56573771 395.13518048 332.57216586 394.03306105 324.57850591 392.9315647 C311.43514622 391.12039531 298.29206412 389.30721978 285.14916992 387.49267578 C259.01820262 383.88497603 232.88668932 380.28123645 206.75507367 376.67823625 C199.21396564 375.63846314 191.67288393 374.59849981 184.13186264 373.55809784 C152.48691721 369.19224407 120.8408429 364.83501939 89.18977587 360.51374075 C87.08064342 360.22577664 84.97151801 359.93776109 82.86239445 359.64973187 C69.69988123 357.85226867 56.53718474 356.05616435 43.37379217 354.26515007 C38.67964235 353.62621173 33.98565239 352.98610454 29.29169631 352.34574461 C27.13104329 352.05129751 24.97031288 351.75741763 22.80949998 351.46414614 C19.87938466 351.06644992 16.9495301 350.6668841 14.01972961 350.26687622 C12.74487561 350.09461212 12.74487561 350.09461212 11.44426697 349.91886795 C10.66167931 349.81164008 9.87909164 349.70441221 9.07278919 349.59393501 C8.40187333 349.50268132 7.73095747 349.41142763 7.03971082 349.31740868 C4.68079502 348.95032706 2.34094669 348.46818934 0 348 C0 233.16 0 118.32 0 0 Z " fill="#00ADEF" transform="translate(0,531)"/>
<path d="M0 0 C0 132.66 0 265.32 0 402 C-140.75018374 403.18277465 -140.75018374 403.18277465 -199.41894531 403.50268555 C-206.64682568 403.54210028 -213.87468433 403.58382129 -221.10253906 403.62768555 C-286.07032701 404.0189351 -351.02895497 404 -416 404 C-416 289.49 -416 174.98 -416 57 C-404.75000071 54.75000014 -404.75000071 54.75000014 -399.69082642 54.0606451 C-398.53771375 53.9019771 -397.38460108 53.7433091 -396.1965456 53.57983297 C-394.34089371 53.32930468 -394.34089371 53.32930468 -392.44775391 53.07371521 C-391.09606701 52.88892814 -389.7444176 52.7038667 -388.39280224 52.51855713 C-384.70086315 52.01318366 -381.00840829 51.5116737 -377.31585336 51.01082265 C-373.32123653 50.46829952 -369.3271155 49.92214863 -365.33293152 49.37644958 C-358.4052248 48.43046485 -351.47721022 47.48676282 -344.54898071 46.54461479 C-334.46020007 45.17266784 -324.37189889 43.79722131 -314.28370535 42.42096473 C-297.81918925 40.17492988 -281.35429481 37.93168109 -264.88916016 35.69018555 C-249.0631192 33.53568738 -233.23724855 31.37994555 -217.41162109 29.22241211 C-216.44494743 29.09062439 -215.47827376 28.95883667 -214.48230696 28.82305538 C-209.62299273 28.16057123 -204.76368206 27.49806104 -199.90437317 26.83553779 C-190.31110567 25.52758928 -180.71781405 24.21981769 -171.12451172 22.91212463 C-169.72164909 22.720896 -169.72164909 22.720896 -168.2904458 22.52580417 C-154.72774781 20.67706463 -141.16494295 18.82911075 -127.60205078 16.98179626 C-126.74735781 16.8653786 -125.89266484 16.74896094 -125.01207209 16.62901547 C-116.64771524 15.48970805 -108.28334005 14.3505361 -99.91884685 13.21223019 C-95.91284322 12.66705372 -91.906856 12.12175686 -87.90087891 11.5763855 C-87.1193267 11.46998685 -86.3377745 11.3635882 -85.53253889 11.25396536 C-74.31296235 9.7263013 -63.0943301 8.19184101 -51.87625611 6.65318432 C-47.20437422 6.01258513 -42.53235776 5.37296793 -37.86034292 4.73333915 C-33.48628929 4.13435423 -29.112484 3.53359638 -24.73886251 2.93146458 C-22.72134983 2.65401688 -20.70371575 2.37747345 -18.6860218 2.10134733 C-16.24566201 1.76736577 -13.80550268 1.43191483 -11.36558342 1.09473002 C-9.76526362 0.87639885 -9.76526362 0.87639885 -8.13261414 0.65365696 C-7.20752391 0.52656237 -6.28243368 0.39946778 -5.32931042 0.26852185 C-3 0 -3 0 0 0 Z " fill="#00ADEF" transform="translate(416,87)"/>
</svg>
