<?xml version="1.0" standalone="no"?>
<!DOCTYPE svg PUBLIC "-//W3C//DTD SVG 20010904//EN"
 "http://www.w3.org/TR/2001/REC-SVG-20010904/DTD/svg10.dtd">
<svg version="1.0" xmlns="http://www.w3.org/2000/svg"
 width="512.000000pt" height="512.000000pt" viewBox="0 0 512.000000 512.000000"
 preserveAspectRatio="xMidYMid meet">

<g transform="translate(0.000000,512.000000) scale(0.100000,-0.100000)"
fill="#000000" stroke="none">
<path d="M123 3600 c-12 -5 -24 -18 -28 -30 -4 -11 -1 -222 6 -468 11 -425 8
-1288 -7 -1702 -5 -139 -4 -168 9 -185 15 -19 29 -20 404 -23 213 -2 403 0
420 3 18 3 37 14 42 24 6 9 13 119 17 243 l7 226 148 148 c95 95 152 145 158
139 13 -13 243 -390 364 -597 82 -139 103 -168 129 -177 21 -8 247 -11 705
-11 l674 0 24 25 25 24 0 346 0 345 194 0 194 0 73 -117 c70 -114 250 -416
320 -538 19 -33 46 -66 59 -72 19 -10 127 -12 463 -11 421 3 439 4 453 22 8
11 14 29 14 40 -1 16 -225 337 -512 729 l-20 28 33 12 c76 27 227 109 276 149
104 86 180 208 223 358 34 116 39 337 11 450 -77 306 -275 490 -614 570 -223
53 -229 53 -1461 57 -632 3 -1159 2 -1171 -1 -12 -3 -42 -32 -66 -63 -103
-138 -205 -259 -361 -428 -212 -230 -332 -355 -338 -355 -3 0 -6 183 -8 408
-3 343 -5 409 -18 422 -12 13 -74 15 -417 17 -221 1 -412 -2 -424 -7z m3952
-61 c355 -29 545 -97 695 -248 86 -87 137 -174 172 -296 31 -109 31 -321 0
-436 -67 -249 -231 -410 -504 -495 -32 -10 -58 -21 -58 -26 0 -10 47 -77 328
-467 122 -170 222 -312 222 -315 0 -4 -192 -5 -427 -4 l-427 3 -89 154 c-86
149 -271 454 -326 536 l-27 40 -234 0 -235 0 -3 -367 -2 -368 -679 0 -679 0
-120 203 c-138 234 -359 598 -373 612 -6 6 -77 -58 -194 -175 l-185 -185 0
-227 0 -228 -396 0 -396 0 6 38 c3 20 11 283 17 584 9 418 9 666 0 1050 -6
277 -14 531 -17 566 l-6 62 396 0 396 0 0 -462 0 -463 136 135 c228 227 483
510 621 690 l81 105 1083 -2 c717 -1 1131 -6 1224 -14z"/>
<path d="M2111 2881 c-224 -218 -313 -312 -309 -323 10 -25 324 -451 547 -742
74 -98 76 -99 82 -70 9 38 8 1208 0 1341 l-6 101 -314 -307z m272 -83 c8 -304
7 -654 -2 -816 l-6 -113 -211 283 c-115 156 -230 311 -254 346 l-44 63 250
249 c137 138 252 250 255 250 3 0 9 -118 12 -262z"/>
<path d="M3167 2933 c-2 -5 -3 -84 -3 -178 l1 -170 300 -3 c439 -5 676 19 736
74 37 33 52 74 47 126 -13 133 -130 158 -724 158 -194 0 -355 -3 -357 -7z
m743 -53 c80 -6 168 -17 197 -25 64 -19 97 -56 89 -99 -19 -94 -121 -113 -638
-123 l-338 -6 0 131 0 132 273 0 c149 0 337 -5 417 -10z"/>
</g>
</svg>
