<?xml version="1.0" encoding="UTF-8"?>
<svg version="1.1" xmlns="http://www.w3.org/2000/svg" width="2133" height="2133">
<path d="M0 0 C4.05402479 0.00234629 8.10804604 -0.0012159 12.16207005 -0.00389557 C20.10465779 -0.00823942 28.04723604 -0.00729472 35.9898241 -0.00441926 C42.54342347 -0.00218484 49.09701972 -0.00220609 55.65061928 -0.00365047 C56.60056099 -0.00385884 57.5505027 -0.0040672 58.52923052 -0.00428188 C60.46521176 -0.00471512 62.401193 -0.00515234 64.33717423 -0.00559347 C83.6869048 -0.00970555 103.03662961 -0.00634025 122.38635929 -0.00008379 C124.4981117 0.0005985 126.60986411 0.00127944 128.72161652 0.00195904 C129.77002343 0.0022968 130.81843034 0.00263455 131.89860716 0.00298255 C142.52922267 0.00628466 153.15983823 0.00769541 163.79045414 0.00901567 C257.44022216 0.02096946 351.08984646 0.07608361 606.47555806 1.11362191 C609.65960619 1.13050618 612.84365497 1.14726142 616.02770402 1.16397305 C642.12556041 1.30105684 668.22332982 1.44870921 694.32100894 1.61630316 C696.52837608 1.63041985 698.73574435 1.64434517 700.9431131 1.65820904 C808.79248232 2.33734123 808.79248232 2.33734123 861.13965012 4.00573178 C862.48436537 4.04753704 863.82908179 4.08930435 865.17379929 4.13103695 C958.25516524 7.04959461 1054.81456002 19.46377602 1167.70215012 84.13073178 C1168.75402512 84.88870053 1169.80590012 85.64666928 1170.88965012 86.42760678 C1193.19562083 102.80855402 1213.1083533 121.97638125 1229.70215012 144.13073178 C1230.11529465 144.67632748 1230.52843918 145.22192318 1230.95410325 145.78405209 C1241.85425732 160.25137228 1251.06646867 175.93369427 1258.82275559 192.29088803 C1259.65851838 194.0394467 1260.52523949 195.77310871 1261.39355637 197.50573178 C1275.17965704 225.65368674 1285.04171011 256.98319963 1288.70215012 288.13073178 C1288.78721818 288.83519436 1288.87228623 289.53965695 1288.9599321 290.26546688 C1290.90740782 306.9063737 1291.06280749 323.53791287 1291.02000596 340.26803799 C1291.01458328 342.47037891 1291.0122037 344.67270912 1291.01013352 346.87505551 C1290.97953393 367.75105221 1290.65671926 388.42352201 1287.70215012 409.13073178 C1287.55761399 410.20049252 1287.41307786 411.27025326 1287.26416184 412.372431 C1279.73096104 466.90679827 1257.53297304 520.35184679 1222.70215012 563.13073178 C1222.2649968 563.67084896 1221.82784348 564.21096615 1221.37744309 564.76745053 C1209.11824925 579.79908798 1195.50756555 593.82490065 1179.70215012 605.13073178 C1179.16042161 605.52212338 1178.61869309 605.91351498 1178.06054856 606.31676693 C1157.38269202 621.09279305 1134.36269003 632.75809958 1111.70215012 644.13073178 C1110.58163254 644.69566342 1109.46111497 645.26059506 1108.30664231 645.84264584 C1092.09601106 653.97361858 1075.74118668 660.93838773 1058.70215012 667.13073178 C1059.05817307 667.61203549 1059.41419602 668.0933392 1059.78100754 668.58922787 C1066.8400693 678.13753178 1073.86171766 687.71001458 1080.79785325 697.34801693 C1084.79010535 702.88756917 1088.83087911 708.38977638 1092.88965012 713.88073178 C1097.70512961 720.39787763 1102.4607963 726.95186695 1107.15527512 733.55651303 C1110.08757746 737.67962752 1113.05063289 741.78038372 1116.01465012 745.88073178 C1116.56258225 746.63878109 1117.11051438 747.39683041 1117.67505051 748.17785092 C1118.79287465 749.72406275 1119.91079516 751.27020491 1121.02881028 752.81627865 C1123.75478151 756.58666197 1126.47836546 760.35876871 1129.20215012 764.13073178 C1130.28547156 765.63074036 1131.36880491 767.13074036 1132.45215012 768.63073178 C1134.61881679 771.63073178 1136.78548345 774.63073178 1138.95215012 777.63073178 C1139.48848069 778.37331234 1140.02481125 779.11589291 1140.57739426 779.88097592 C1141.66003266 781.38007627 1142.74255232 782.8792624 1143.82495286 784.37853451 C1146.54294835 788.14301346 1149.2630308 791.90595082 1151.98730637 795.66588803 C1157.77295223 803.65558945 1163.51366876 811.67335208 1169.18725754 819.74303646 C1172.77617099 824.84001028 1176.41654699 829.89756538 1180.07715012 834.94323178 C1185.90813501 842.98654291 1191.61560129 851.11217218 1197.29980637 859.25963803 C1200.41758199 863.72830317 1203.5557842 868.18216805 1206.70215012 872.63073178 C1212.78859763 881.24233222 1218.84040487 889.87784138 1224.87793137 898.52379818 C1226.65768842 901.06719296 1228.44485829 903.60522825 1230.23340012 906.14245053 C1239.05857688 918.70058644 1247.62618888 931.42259023 1256.13965012 944.19323178 C1256.69600144 945.02730557 1257.25235276 945.86137936 1257.82556321 946.72072811 C1279.95345602 979.91461001 1279.95345602 979.91461001 1278.70215012 988.13073178 C1276.32379272 994.57943238 1274.1459516 1000.08457108 1267.70215012 1003.13073178 C1256.58899445 1006.55905363 1244.13205756 1006.28672778 1232.61474778 1006.65856381 C1230.73936294 1006.72059081 1230.73936294 1006.72059081 1228.82609154 1006.78387089 C1214.05675738 1007.24727145 1199.28448772 1007.47353792 1184.50935961 1007.65569754 C1182.04448438 1007.68611153 1179.57962229 1007.71747822 1177.11475922 1007.74886151 C1134.38930431 1008.28495654 1091.66279166 1008.2834907 1048.93463565 1008.25930114 C1040.30036747 1008.25492728 1031.66611371 1008.25808927 1023.03184642 1008.26292928 C1014.50924789 1008.26750716 1005.98665551 1008.26809072 997.46405615 1008.26549061 C992.4574455 1008.26396354 987.45084458 1008.2636336 982.44423462 1008.26702709 C964.20067049 1008.27769186 945.96701782 1008.24905743 927.73095872 1007.6771185 C926.46061595 1007.63734953 925.19027318 1007.59758057 923.88143517 1007.55660649 C916.7820373 1007.30721742 909.71415455 1006.9034489 902.63965012 1006.25573178 C901.55730875 1006.15758584 901.55730875 1006.15758584 900.45310189 1006.05745716 C889.59262377 1004.82311469 884.05393871 999.36425531 877.31152512 991.25573178 C868.90382164 980.58453948 862.52867548 968.61423369 855.90355088 956.80086727 C852.02692053 949.90185218 848.02691973 943.07647708 844.01465012 936.25573178 C843.29101428 935.02420687 842.56738145 933.79268018 841.84375168 932.5611517 C839.79894081 929.08293451 837.75084388 925.60666331 835.70215012 922.13073178 C835.13963547 921.1756976 834.57712082 920.22066342 833.99756028 919.23668881 C826.4079905 906.35565138 818.77353381 893.50113283 811.13672043 880.64806576 C807.03926482 873.75182083 802.94473651 866.85388473 798.85840012 859.95104428 C791.02966928 846.73121042 783.15944373 833.54037528 775.1606157 820.42266293 C769.82576831 811.6716208 764.56947572 802.87674166 759.35193039 794.05529232 C744.81418715 769.47683002 729.76666815 745.21339836 714.50920273 721.07540341 C713.44392029 719.38917883 712.38075881 717.70161493 711.31762864 716.01403256 C709.97291491 713.87982523 708.62457659 711.74789636 707.27221848 709.61852475 C706.67288498 708.66606869 706.07355149 707.71361264 705.45605637 706.73229428 C704.92310959 705.89005307 704.39016282 705.04781185 703.84106614 704.18004818 C702.70215012 702.13073178 702.70215012 702.13073178 702.70215012 700.13073178 C649.57215012 700.13073178 596.44215012 700.13073178 541.70215012 700.13073178 C541.92838059 731.2151849 541.92838059 731.2151849 542.15918137 762.92760678 C542.22559273 776.04350628 542.2887901 789.15930255 542.33691575 802.27526303 C542.36236684 809.16540381 542.38863275 816.05554076 542.41626145 822.94567318 C542.42140455 824.24096402 542.42140455 824.24096402 542.42665155 825.56242235 C542.48314335 839.49087348 542.58560397 853.41862463 542.70513647 867.34666114 C542.82684702 881.64811235 542.89894341 895.94919795 542.92530055 910.25114579 C542.9431104 919.07173169 542.99928504 927.8903398 543.10506419 936.71031658 C543.17395808 942.76435741 543.19451341 948.81738085 543.17766803 954.87178491 C543.16936561 958.36213547 543.18178117 961.84903991 543.25182129 965.33877201 C543.62945947 987.39065466 543.62945947 987.39065466 538.95490243 993.23095913 C536.36008457 995.85263762 533.5396209 997.8604526 530.41381897 999.79878499 C528.35233821 1001.4029403 527.2247919 1003.21891509 525.74931981 1005.36748238 C523.38419994 1008.14526771 522.12191889 1009.03425655 518.5261354 1009.8606735 C514.36400926 1010.14588283 510.27038184 1010.16455636 506.10217454 1010.09949704 C504.49073424 1010.10370414 502.87929995 1010.11142508 501.26789118 1010.12234844 C496.84155263 1010.14217431 492.41674222 1010.11211299 487.99057581 1010.07391579 C483.2102138 1010.04140191 478.42995711 1010.05515125 473.64952256 1010.06321163 C465.34465503 1010.07082965 457.0402812 1010.04893647 448.73552109 1010.00713749 C436.61622969 1009.94613993 424.49718007 1009.92914779 412.37775166 1009.92217893 C392.56599493 1009.90952126 372.75449878 1009.86042768 352.94287278 1009.78917904 C333.954269 1009.72095824 314.96576403 1009.67078157 295.97705247 1009.64562435 C294.82142086 1009.64408797 293.66578925 1009.64255158 292.4751385 1009.64096864 C287.82201582 1009.63484934 283.16889301 1009.62883686 278.51577 1009.62297182 C206.58901441 1009.53145861 134.66352818 1009.37138679 62.73951139 1008.70042944 C59.46843358 1008.67018821 56.19734803 1008.64097336 52.92625882 1008.61199506 C32.17485471 1008.42607814 11.42759059 1008.18873891 -9.31799148 1007.64783688 C-10.08170065 1007.62830135 -10.84540981 1007.60876583 -11.63226168 1007.58863831 C-55.98486137 1006.4314193 -55.98486137 1006.4314193 -64.95800613 997.83776303 C-68.20300395 994.37808341 -71.03607592 990.71349618 -73.73534988 986.81823178 C-74.23848709 986.09732357 -74.74162429 985.37641537 -75.26000808 984.63366146 C-87.89427572 966.25585079 -98.92700622 946.7692625 -110.15342544 927.51224728 C-115.77366208 917.8782844 -121.48107057 908.29568442 -127.17626785 898.70592709 C-129.03416454 895.57637009 -130.88843083 892.44467485 -132.74192642 889.31250973 C-141.4000286 874.68230291 -150.11038071 860.08744857 -158.95385574 845.56847592 C-164.10442551 837.11055848 -169.20998681 828.62649926 -174.29784988 820.13073178 C-187.48734386 798.11521746 -200.83679158 776.20073161 -214.30956863 754.35729428 C-216.31915672 751.09615524 -218.3247397 747.83258626 -220.32909988 744.56823178 C-239.35258601 713.55452351 -239.35258601 713.55452351 -259.29784988 683.13073178 C-271.63839851 685.91271441 -285.26508863 701.76750961 -293.82128738 710.68151303 C-295.81139412 712.64964699 -297.82264452 714.49062537 -299.9331343 716.32396908 C-312.35864852 727.1557737 -324.56122186 738.20881424 -336.53454231 749.53924771 C-341.28405604 754.0256712 -346.06813202 758.44997074 -350.9794905 762.75914975 C-377.5430504 785.86647954 -377.5430504 785.86647954 -388.49474071 818.12642212 C-389.02463372 828.64271665 -388.44578331 839.12451035 -387.68688796 849.61492367 C-387.09332636 858.28469992 -387.47535001 866.86491847 -387.9185221 875.5326788 C-388.1246562 879.77055782 -388.25226195 884.01072495 -388.38793777 888.25133725 C-388.44454447 889.91653691 -388.50168439 891.58171853 -388.55935501 893.24688168 C-388.58806308 894.07661244 -388.61677116 894.9063432 -388.64634918 895.76121731 C-390.27832969 942.64846305 -390.27832969 942.64846305 -391.86034988 965.50573178 C-391.91842819 966.36049099 -391.97650649 967.21525021 -392.03634475 968.09591122 C-393.92876652 995.35493783 -393.92876652 995.35493783 -399.29784988 1001.13073178 C-401.77050613 1002.67760678 -401.77050613 1002.67760678 -404.36034988 1003.88073178 C-405.21757644 1004.28807553 -406.074803 1004.69541928 -406.95800613 1005.11510678 C-411.56228007 1007.11362301 -415.78643508 1007.44671211 -420.73708938 1007.68514462 C-421.58227697 1007.727272 -422.42746456 1007.76939938 -423.29826389 1007.81280334 C-432.62234416 1008.24249042 -441.93790233 1008.27144022 -451.27001785 1008.26012631 C-453.19039782 1008.2614863 -455.11077753 1008.26326955 -457.03115676 1008.26543637 C-462.2039277 1008.26995508 -467.37667843 1008.2682401 -472.54944967 1008.26505728 C-478.05576298 1008.26248643 -483.56207481 1008.26488581 -489.06838821 1008.26644345 C-498.36346573 1008.26825919 -507.65853529 1008.26588245 -516.9536116 1008.26110287 C-526.34359088 1008.25632828 -535.73355424 1008.25622726 -545.12353347 1008.26110287 C-634.43302685 1008.30621952 -634.43302685 1008.30621952 -676.80566238 1007.68541928 C-677.83768665 1007.67070702 -677.83768665 1007.67070702 -678.8905599 1007.65569754 C-692.77870838 1007.45722776 -706.65935854 1007.16498 -720.5395491 1006.64684506 C-721.58601671 1006.60814738 -722.63248432 1006.56944969 -723.71066307 1006.52957936 C-750.132993 1005.46925259 -750.132993 1005.46925259 -757.29784988 1000.13073178 C-762.13361583 993.17752985 -762.54664262 985.95399023 -762.89086746 977.74181576 C-762.93398716 976.71672374 -762.97710687 975.69163172 -763.02153324 974.63547631 C-763.40926372 964.18738763 -763.16977869 953.79791632 -762.80956863 943.35338803 C-762.74543089 941.29596593 -762.68220142 939.23851535 -762.61979507 937.18104 C-762.48582517 932.80151632 -762.34736525 928.42216934 -762.20525955 924.04290219 C-761.82228201 912.1966243 -761.47692078 900.34920096 -761.12988113 888.50182553 C-761.09401901 887.28443692 -761.05815689 886.0670483 -761.02120803 884.81276913 C-760.2781245 859.5047095 -759.71175732 834.19472658 -759.23239349 808.88040753 C-759.1751453 805.87618907 -759.11643217 802.87200314 -759.05721878 799.86782284 C-757.734658 732.41622725 -757.1370021 664.96109561 -757.16255002 597.49730994 C-757.164895 591.12473369 -757.16509504 584.75216011 -757.16403411 578.37958355 C-757.16380426 576.98239566 -757.16380426 576.98239566 -757.16356977 575.55698175 C-757.16324983 573.66083281 -757.16292561 571.76468386 -757.16259718 569.86853492 C-757.15979501 552.3922041 -757.16294557 534.91587866 -757.16839755 517.43954873 C-757.17287126 502.64357323 -757.17207452 487.84760558 -757.16747878 473.05163021 C-757.16205589 455.58610341 -757.16005847 438.12058122 -757.16309105 420.65505369 C-757.16340939 418.77285556 -757.16372376 416.89065742 -757.16403411 415.00845928 C-757.16426553 413.62168311 -757.16426553 413.62168311 -757.16450161 412.20689126 C-757.16534321 405.88037264 -757.16393705 399.55385713 -757.16155456 393.22733898 C-757.14931067 357.53091718 -757.23653908 321.84138632 -757.76122878 286.1483099 C-757.77161024 285.43861035 -757.78199169 284.7289108 -757.79268773 283.99770521 C-758.23032935 254.28602952 -758.93922042 224.58119813 -759.69891189 194.87627621 C-760.53394747 162.20892181 -761.33537732 129.54251567 -761.88378738 96.86901303 C-761.90464904 95.64755959 -761.92551071 94.42610615 -761.94700454 93.16763897 C-762.28708889 73.02657768 -762.43005932 52.88783356 -762.43066238 32.74401303 C-762.43090408 31.95776484 -762.43114578 31.17151665 -762.4313948 30.36144276 C-762.41228899 21.01533876 -762.14910496 14.01312892 -755.29784988 7.13073178 C-746.36530053 0.16334328 -732.93770429 1.90258287 -722.10839675 1.57653256 C-721.41649718 1.55557026 -720.7245976 1.53460797 -720.01173137 1.51301046 C-699.26203154 0.90368593 -678.50346911 0.98428115 -657.74688362 0.99640627 C-651.90697905 0.99899151 -646.06707582 0.99657511 -640.22717117 0.99502011 C-630.41397652 0.99321369 -620.60078946 0.99556177 -610.78759597 1.00036068 C-599.58788603 1.00577587 -588.38819438 1.00405442 -577.18848489 0.99853428 C-567.4410605 0.99392959 -557.69364147 0.9933885 -547.94621633 0.99597295 C-542.18330263 0.99749921 -536.42039737 0.99783467 -530.65748428 0.99443646 C-507.05174278 0.98247322 -483.45602268 1.10412424 -459.8544905 1.57653256 C-458.85316935 1.59594458 -457.8518482 1.6153566 -456.82018398 1.63535686 C-446.66748088 1.83718576 -436.52342173 2.1190952 -426.38024734 2.61068173 C-425.57903662 2.64885765 -424.77782589 2.68703358 -423.95233606 2.72636636 C-403.20375026 3.80412509 -403.20375026 3.80412509 -397.29784988 8.13073178 C-389.44114335 23.75999316 -392.18138854 47.29251335 -391.77441238 64.55675717 C-391.75356079 65.4137534 -391.73270919 66.27074963 -391.71122573 67.15371545 C-391.24947371 86.25226774 -391.01581008 105.35181741 -390.82552932 124.45469756 C-390.77764221 129.18576921 -390.72603153 133.91680044 -390.674803 138.64783688 C-390.55659796 149.61605296 -390.44259183 160.58431056 -390.32909988 171.55257626 C-390.15548554 188.3065295 -389.9787856 205.06044974 -389.79784988 221.81432553 C-389.78760182 222.76474877 -389.77735375 223.71517202 -389.76679514 224.69439597 C-389.50208422 249.18482076 -389.20325609 273.67389023 -388.77050613 298.16198178 C-388.75067169 299.29568644 -388.73083724 300.4293911 -388.71040176 301.59745045 C-388.41712638 318.11493778 -388.01088864 334.6253747 -387.29784988 351.13073178 C-384.11906168 351.13073178 -382.81069748 348.88446169 -380.67683242 346.76195736 C-380.052901 346.13084042 -379.42896957 345.49972348 -378.78613113 344.84948178 C-378.13968139 344.20257382 -377.49323165 343.55566586 -376.82719253 342.88915463 C-375.45379631 341.51272977 -374.08283885 340.13386796 -372.71410964 338.75280209 C-370.64151384 336.66216698 -368.56124701 334.57942834 -366.4794905 332.49791928 C-365.14373539 331.15724021 -363.8084351 329.81610782 -362.47363113 328.47448178 C-361.55291572 327.55209713 -361.55291572 327.55209713 -360.6136 326.61107846 C-356.88182149 322.8391944 -353.33221777 318.95383433 -349.87589858 314.92772885 C-347.47767525 312.19676098 -344.89901512 309.6664047 -342.29784988 307.13073178 C-338.35294091 303.23955319 -334.59778598 299.27883186 -331.00488113 295.05651303 C-328.30806975 292.01411483 -325.38250591 289.20747369 -322.48925613 286.35338803 C-319.8768392 283.70371738 -317.46482367 280.91900375 -315.04394363 278.09557553 C-312.57425628 275.31648663 -309.91881666 272.74212682 -307.27050613 270.13463803 C-304.72447158 267.54827026 -302.37763431 264.81537898 -300.01269363 262.06432553 C-297.82628164 259.59900904 -295.49148095 257.31128511 -293.14037918 255.00451107 C-291.36760964 253.20167469 -289.71096724 251.34492156 -288.06347488 249.42760678 C-284.33412948 245.13846535 -280.46015229 241.00265585 -276.54784988 236.88073178 C-270.96068317 230.96959682 -265.41779557 225.02523131 -259.93456863 219.01745053 C-257.08684367 215.89971906 -254.2256839 212.79476786 -251.36034988 209.69323178 C-250.86188552 209.15351742 -250.36342117 208.61380307 -249.84985183 208.05773373 C-247.8259667 205.86663395 -245.80164209 203.67594043 -243.77734207 201.48522396 C-229.55660553 186.09499065 -229.55660553 186.09499065 -215.48534988 170.56823178 C-213.21922671 168.04312311 -210.94594372 165.5245655 -208.67284988 163.00573178 C-203.88650246 157.68390659 -199.16120227 152.31560643 -194.51269363 146.87291928 C-193.48277509 145.66716501 -192.45282635 144.46143655 -191.42284988 143.25573178 C-190.6433699 142.34295468 -190.6433699 142.34295468 -189.84814285 141.41173764 C-186.81892455 137.8744932 -183.74636405 134.38680601 -180.61034988 130.94323178 C-176.83616301 126.78350969 -173.27998875 122.48039028 -169.74706863 118.11510678 C-166.97973751 114.74311161 -164.14619745 111.43424152 -161.29784988 108.13073178 C-156.19900424 102.2084106 -151.21997938 96.20109051 -146.29784988 90.13073178 C-145.3022912 88.91675111 -144.30616034 87.70323954 -143.30956863 86.49010678 C-137.09412039 78.90718442 -131.03065218 71.23159591 -125.10571121 63.41955014 C-121.07532965 58.11513807 -116.93553116 52.91019399 -112.74902175 47.72863217 C-109.13455704 43.23257617 -105.6685599 38.64111905 -102.23534988 34.00573178 C-80.81379852 5.23875547 -80.81379852 5.23875547 -70.29784988 1.13073178 C-67.76987826 0.89471495 -65.34242176 0.7614826 -62.81142639 0.7212183 C-62.06844485 0.70216078 -61.32546331 0.68310326 -60.55996718 0.66346824 C-58.11038351 0.60369804 -55.66078028 0.55830526 -53.21087478 0.51381893 C-51.48556154 0.47622831 -49.76025721 0.43822692 -48.03496169 0.39983208 C-32.02385169 0.06117803 -16.0141183 -0.01377739 0 0 Z M185.13574387 231.63463803 C183.82295859 232.98852813 182.51045062 234.3426872 181.19824387 235.69713803 C179.18075148 237.66411418 177.13637411 239.49815106 175.00122239 241.33165951 C170.97059838 244.84745999 167.17599145 248.54344881 163.42090012 252.34948178 C162.7631157 253.01105282 162.10533127 253.67262387 161.42761399 254.35424252 C159.34997738 256.44395912 157.27564386 258.53690493 155.20215012 260.63073178 C152.46556862 263.39414878 149.72552749 266.154069 146.98340012 268.91198178 C146.06584946 269.84197995 146.06584946 269.84197995 145.12976243 270.79076596 C142.31183364 273.62435945 139.46999037 276.35548017 136.41102768 278.92780514 C129.53838424 284.91831994 123.1860399 291.47298356 116.73315598 297.90685482 C115.223157 299.40894173 113.7129797 300.91084941 112.2026384 302.41259213 C107.27036431 307.31881 102.34339715 312.23033876 97.41699387 317.14245053 C95.7181185 318.83596257 94.01923605 320.52946751 92.32034661 322.22296543 C85.26041455 329.26130768 78.20190696 336.30107331 71.14711834 343.34457131 C61.04024836 353.43515587 50.92494978 363.51712099 40.79786749 373.58742131 C33.6714434 380.67524166 26.55453895 387.77253035 19.44474109 394.877028 C15.19826152 399.11984581 10.94765862 403.35833593 6.68687417 407.58679219 C2.68771771 411.55603086 -1.29958139 415.53679702 -5.27788375 419.52693386 C-6.74296988 420.99224198 -8.21237803 422.45324273 -9.68628334 423.90967961 C-11.69036563 425.89128536 -13.67860986 427.88751035 -15.66346572 429.88834591 C-16.2562367 430.4672348 -16.84900767 431.04612368 -17.4597414 431.64255466 C-19.24395301 433.40283903 -19.24395301 433.40283903 -21.29784988 436.13073178 C-20.84350429 439.37345124 -19.56008938 441.51503202 -17.70800613 444.18541928 C-17.17626785 444.95764828 -16.64452957 445.72987728 -16.096678 446.52550717 C-15.52368972 447.34398129 -14.95070144 448.16245541 -14.36034988 449.00573178 C-13.77060378 449.85707699 -13.18085769 450.70842221 -12.5732405 451.58556576 C-7.98210177 458.19683041 -3.33677627 464.76874808 1.37597825 471.29381771 C2.8261465 473.30248228 4.27201956 475.31420157 5.71777512 477.32604428 C13.0508368 487.51813703 20.47420884 497.64153882 27.93603684 507.7396185 C30.86171115 511.7006434 33.78165318 515.66588895 36.70215012 519.63073178 C37.86878902 521.21408557 39.0354557 522.7974189 40.20215012 524.38073178 C61.20215012 552.88073178 61.20215012 552.88073178 62.9526384 555.2564642 C64.11758861 556.8374216 65.28262746 558.41831369 66.44775559 559.99913998 C69.39141992 563.99329006 72.33346358 567.98861608 75.27246262 571.98620053 C81.20145045 580.04754363 87.15414588 588.08887958 93.17236497 596.08385678 C96.9694745 601.13500018 100.71463007 606.22289983 104.45215012 611.31823178 C109.5413838 618.25376896 114.72105466 625.11415593 119.95215012 631.94323178 C124.6977901 638.13955052 129.35672923 644.37137018 133.84472825 650.75622006 C137.58526473 656.04196169 141.5152987 661.17775699 145.45215012 666.31823178 C152.39250489 675.3815569 159.20329055 684.53098064 165.94922043 693.7396185 C169.02670548 697.93751384 172.11478949 702.12759737 175.20215012 706.31823178 C175.76563157 707.08409603 176.32911301 707.84996029 176.90966965 708.63903256 C177.9796932 710.09223375 179.05108951 711.5444254 180.12402512 712.99547787 C181.22132766 714.48016351 182.31480196 715.96768304 183.40527512 717.45739193 C184.2173845 718.55833187 184.2173845 718.55833187 185.04590012 719.68151303 C185.53252122 720.34449398 186.01914231 721.00747494 186.5205095 721.69054623 C186.9104509 722.16580746 187.30039231 722.64106869 187.70215012 723.13073178 C188.03215012 723.13073178 188.36215012 723.13073178 188.70215012 723.13073178 C189.96857594 707.1212362 190.9680002 691.1074116 191.76465012 675.06823178 C191.80467148 674.28666714 191.84469285 673.5051025 191.88592698 672.69985409 C193.5006456 640.93415438 193.90905319 609.13538688 194.23437668 577.33568783 C194.27478284 573.47510796 194.31881239 569.6145728 194.36279847 565.75403233 C194.7982587 527.37368451 194.69506815 489.01120821 194.32715012 450.63073178 C194.31669034 449.53139561 194.30623055 448.43205944 194.2954538 447.29941006 C194.07188913 338.58577808 194.07188913 338.58577808 187.70215012 230.13073178 C186.46046059 230.01530356 186.46046059 230.01530356 185.13574387 231.63463803 Z M541.70215012 301.13073178 C541.70215012 336.77073178 541.70215012 372.41073178 541.70215012 409.13073178 C566.2073283 409.17176085 566.2073283 409.17176085 590.70312668 408.88707943 C592.14741752 408.86052725 593.59171299 408.83422624 595.03601243 408.80814572 C598.84799893 408.73852131 602.65990455 408.66520327 606.47180058 408.59080763 C609.72847781 408.5276055 612.98519032 408.46632584 616.24190284 408.40497358 C623.98489187 408.25905167 631.72781612 408.11000261 639.47070481 407.95885678 C646.40814143 407.82348123 653.3456338 407.69165126 660.28320481 407.56334896 C694.54034258 406.92916401 728.79355182 406.25765678 763.03808762 405.11510678 C764.22611229 405.07589737 765.41413697 405.03668797 766.63816239 404.9962904 C858.94525463 407.3304536 858.94525463 407.3304536 939.75683762 373.63854428 C946.02200211 365.56176596 948.70445667 356.22642816 947.70215012 346.13073178 C945.49972044 336.94225124 940.20495844 330.14868545 932.42090012 324.93151303 C928.93179949 322.82101856 925.34640747 320.95910775 921.70215012 319.13073178 C920.91453293 318.71952084 920.12691575 318.3083099 919.31543137 317.88463803 C886.10225379 302.56006596 837.46269635 304.60283337 801.57715012 303.06823178 C800.63620499 303.02775723 799.69525986 302.98728268 798.72580124 302.94558163 C763.87430469 301.47355003 729.04889348 300.98071675 694.16968442 301.02933784 C688.78068168 301.03572997 683.39167792 301.03618737 678.00267197 301.03736325 C667.86791559 301.04043103 657.73317042 301.04858079 647.59841891 301.05871274 C633.85379369 301.07214561 620.10916526 301.07741069 606.36453511 301.08321495 C584.81039843 301.09252558 563.25628538 301.11247416 541.70215012 301.13073178 Z " fill="#FEFEFE" transform="translate(800.2978498786688,628.8692682236433)"/>
<path d="M0 0 C4.05402479 0.00234629 8.10804604 -0.0012159 12.16207005 -0.00389557 C20.10465779 -0.00823942 28.04723604 -0.00729472 35.9898241 -0.00441926 C42.54342347 -0.00218484 49.09701972 -0.00220609 55.65061928 -0.00365047 C56.60056099 -0.00385884 57.5505027 -0.0040672 58.52923052 -0.00428188 C60.46521176 -0.00471512 62.401193 -0.00515234 64.33717423 -0.00559347 C83.6869048 -0.00970555 103.03662961 -0.00634025 122.38635929 -0.00008379 C124.4981117 0.0005985 126.60986411 0.00127944 128.72161652 0.00195904 C129.77002343 0.0022968 130.81843034 0.00263455 131.89860716 0.00298255 C142.52922267 0.00628466 153.15983823 0.00769541 163.79045414 0.00901567 C257.44022216 0.02096946 351.08984646 0.07608361 606.47555806 1.11362191 C609.65960619 1.13050618 612.84365497 1.14726142 616.02770402 1.16397305 C642.12556041 1.30105684 668.22332982 1.44870921 694.32100894 1.61630316 C696.52837608 1.63041985 698.73574435 1.64434517 700.9431131 1.65820904 C808.79248232 2.33734123 808.79248232 2.33734123 861.13965012 4.00573178 C862.48436537 4.04753704 863.82908179 4.08930435 865.17379929 4.13103695 C958.25516524 7.04959461 1054.81456002 19.46377602 1167.70215012 84.13073178 C1168.75402512 84.88870053 1169.80590012 85.64666928 1170.88965012 86.42760678 C1193.19562083 102.80855402 1213.1083533 121.97638125 1229.70215012 144.13073178 C1230.11529465 144.67632748 1230.52843918 145.22192318 1230.95410325 145.78405209 C1241.85425732 160.25137228 1251.06646867 175.93369427 1258.82275559 192.29088803 C1259.65851838 194.0394467 1260.52523949 195.77310871 1261.39355637 197.50573178 C1275.17965704 225.65368674 1285.04171011 256.98319963 1288.70215012 288.13073178 C1288.78721818 288.83519436 1288.87228623 289.53965695 1288.9599321 290.26546688 C1290.90740782 306.9063737 1291.06280749 323.53791287 1291.02000596 340.26803799 C1291.01458328 342.47037891 1291.0122037 344.67270912 1291.01013352 346.87505551 C1290.97953393 367.75105221 1290.65671926 388.42352201 1287.70215012 409.13073178 C1287.55761399 410.20049252 1287.41307786 411.27025326 1287.26416184 412.372431 C1279.73096104 466.90679827 1257.53297304 520.35184679 1222.70215012 563.13073178 C1222.2649968 563.67084896 1221.82784348 564.21096615 1221.37744309 564.76745053 C1209.11824925 579.79908798 1195.50756555 593.82490065 1179.70215012 605.13073178 C1179.16042161 605.52212338 1178.61869309 605.91351498 1178.06054856 606.31676693 C1157.38269202 621.09279305 1134.36269003 632.75809958 1111.70215012 644.13073178 C1110.58163254 644.69566342 1109.46111497 645.26059506 1108.30664231 645.84264584 C1092.09601106 653.97361858 1075.74118668 660.93838773 1058.70215012 667.13073178 C1059.05817307 667.61203549 1059.41419602 668.0933392 1059.78100754 668.58922787 C1066.8400693 678.13753178 1073.86171766 687.71001458 1080.79785325 697.34801693 C1084.79010535 702.88756917 1088.83087911 708.38977638 1092.88965012 713.88073178 C1097.70512961 720.39787763 1102.4607963 726.95186695 1107.15527512 733.55651303 C1110.08757746 737.67962752 1113.05063289 741.78038372 1116.01465012 745.88073178 C1116.56258225 746.63878109 1117.11051438 747.39683041 1117.67505051 748.17785092 C1118.79287465 749.72406275 1119.91079516 751.27020491 1121.02881028 752.81627865 C1123.75478151 756.58666197 1126.47836546 760.35876871 1129.20215012 764.13073178 C1130.28547156 765.63074036 1131.36880491 767.13074036 1132.45215012 768.63073178 C1134.61881679 771.63073178 1136.78548345 774.63073178 1138.95215012 777.63073178 C1139.48848069 778.37331234 1140.02481125 779.11589291 1140.57739426 779.88097592 C1141.66003266 781.38007627 1142.74255232 782.8792624 1143.82495286 784.37853451 C1146.54294835 788.14301346 1149.2630308 791.90595082 1151.98730637 795.66588803 C1157.77295223 803.65558945 1163.51366876 811.67335208 1169.18725754 819.74303646 C1172.77617099 824.84001028 1176.41654699 829.89756538 1180.07715012 834.94323178 C1185.90813501 842.98654291 1191.61560129 851.11217218 1197.29980637 859.25963803 C1200.41758199 863.72830317 1203.5557842 868.18216805 1206.70215012 872.63073178 C1212.78859763 881.24233222 1218.84040487 889.87784138 1224.87793137 898.52379818 C1226.65768842 901.06719296 1228.44485829 903.60522825 1230.23340012 906.14245053 C1239.05857688 918.70058644 1247.62618888 931.42259023 1256.13965012 944.19323178 C1256.69600144 945.02730557 1257.25235276 945.86137936 1257.82556321 946.72072811 C1279.95345602 979.91461001 1279.95345602 979.91461001 1278.70215012 988.13073178 C1276.32379272 994.57943238 1274.1459516 1000.08457108 1267.70215012 1003.13073178 C1256.58899445 1006.55905363 1244.13205756 1006.28672778 1232.61474778 1006.65856381 C1230.73936294 1006.72059081 1230.73936294 1006.72059081 1228.82609154 1006.78387089 C1214.05675738 1007.24727145 1199.28448772 1007.47353792 1184.50935961 1007.65569754 C1182.04448438 1007.68611153 1179.57962229 1007.71747822 1177.11475922 1007.74886151 C1134.38930431 1008.28495654 1091.66279166 1008.2834907 1048.93463565 1008.25930114 C1040.30036747 1008.25492728 1031.66611371 1008.25808927 1023.03184642 1008.26292928 C1014.50924789 1008.26750716 1005.98665551 1008.26809072 997.46405615 1008.26549061 C992.4574455 1008.26396354 987.45084458 1008.2636336 982.44423462 1008.26702709 C964.20067049 1008.27769186 945.96701782 1008.24905743 927.73095872 1007.6771185 C926.46061595 1007.63734953 925.19027318 1007.59758057 923.88143517 1007.55660649 C916.7820373 1007.30721742 909.71415455 1006.9034489 902.63965012 1006.25573178 C901.55730875 1006.15758584 901.55730875 1006.15758584 900.45310189 1006.05745716 C889.59262377 1004.82311469 884.05393871 999.36425531 877.31152512 991.25573178 C868.90382164 980.58453948 862.52867548 968.61423369 855.90355088 956.80086727 C852.02692053 949.90185218 848.02691973 943.07647708 844.01465012 936.25573178 C843.29101428 935.02420687 842.56738145 933.79268018 841.84375168 932.5611517 C839.79894081 929.08293451 837.75084388 925.60666331 835.70215012 922.13073178 C835.13963547 921.1756976 834.57712082 920.22066342 833.99756028 919.23668881 C826.4079905 906.35565138 818.77353381 893.50113283 811.13672043 880.64806576 C807.03926482 873.75182083 802.94473651 866.85388473 798.85840012 859.95104428 C791.02966928 846.73121042 783.15944373 833.54037528 775.1606157 820.42266293 C769.82576831 811.6716208 764.56947572 802.87674166 759.35193039 794.05529232 C744.81418715 769.47683002 729.76666815 745.21339836 714.50920273 721.07540341 C713.44392029 719.38917883 712.38075881 717.70161493 711.31762864 716.01403256 C709.97291491 713.87982523 708.62457659 711.74789636 707.27221848 709.61852475 C706.67288498 708.66606869 706.07355149 707.71361264 705.45605637 706.73229428 C704.92310959 705.89005307 704.39016282 705.04781185 703.84106614 704.18004818 C702.70215012 702.13073178 702.70215012 702.13073178 702.70215012 700.13073178 C649.57215012 700.13073178 596.44215012 700.13073178 541.70215012 700.13073178 C541.92838059 731.2151849 541.92838059 731.2151849 542.15918137 762.92760678 C542.22559273 776.04350628 542.2887901 789.15930255 542.33691575 802.27526303 C542.36236684 809.16540381 542.38863275 816.05554076 542.41626145 822.94567318 C542.42140455 824.24096402 542.42140455 824.24096402 542.42665155 825.56242235 C542.48314335 839.49087348 542.58560397 853.41862463 542.70513647 867.34666114 C542.82684702 881.64811235 542.89894341 895.94919795 542.92530055 910.25114579 C542.9431104 919.07173169 542.99928504 927.8903398 543.10506419 936.71031658 C543.17395808 942.76435741 543.19451341 948.81738085 543.17766803 954.87178491 C543.16936561 958.36213547 543.18178117 961.84903991 543.25182129 965.33877201 C543.62945947 987.39065466 543.62945947 987.39065466 538.95490243 993.23095913 C536.36008457 995.85263762 533.5396209 997.8604526 530.41381897 999.79878499 C528.35233821 1001.4029403 527.2247919 1003.21891509 525.74931981 1005.36748238 C523.38419994 1008.14526771 522.12191889 1009.03425655 518.5261354 1009.8606735 C514.36400926 1010.14588283 510.27038184 1010.16455636 506.10217454 1010.09949704 C504.49073424 1010.10370414 502.87929995 1010.11142508 501.26789118 1010.12234844 C496.84155263 1010.14217431 492.41674222 1010.11211299 487.99057581 1010.07391579 C483.2102138 1010.04140191 478.42995711 1010.05515125 473.64952256 1010.06321163 C465.34465503 1010.07082965 457.0402812 1010.04893647 448.73552109 1010.00713749 C436.61622969 1009.94613993 424.49718007 1009.92914779 412.37775166 1009.92217893 C392.56599493 1009.90952126 372.75449878 1009.86042768 352.94287278 1009.78917904 C333.954269 1009.72095824 314.96576403 1009.67078157 295.97705247 1009.64562435 C294.82142086 1009.64408797 293.66578925 1009.64255158 292.4751385 1009.64096864 C287.82201582 1009.63484934 283.16889301 1009.62883686 278.51577 1009.62297182 C206.58901441 1009.53145861 134.66352818 1009.37138679 62.73951139 1008.70042944 C59.46843358 1008.67018821 56.19734803 1008.64097336 52.92625882 1008.61199506 C32.17485471 1008.42607814 11.42759059 1008.18873891 -9.31799148 1007.64783688 C-10.08170065 1007.62830135 -10.84540981 1007.60876583 -11.63226168 1007.58863831 C-55.98486137 1006.4314193 -55.98486137 1006.4314193 -64.95800613 997.83776303 C-68.20300395 994.37808341 -71.03607592 990.71349618 -73.73534988 986.81823178 C-74.23848709 986.09732357 -74.74162429 985.37641537 -75.26000808 984.63366146 C-87.89427572 966.25585079 -98.92700622 946.7692625 -110.15342544 927.51224728 C-115.77366208 917.8782844 -121.48107057 908.29568442 -127.17626785 898.70592709 C-129.03416454 895.57637009 -130.88843083 892.44467485 -132.74192642 889.31250973 C-141.4000286 874.68230291 -150.11038071 860.08744857 -158.95385574 845.56847592 C-164.10442551 837.11055848 -169.20998681 828.62649926 -174.29784988 820.13073178 C-187.48734386 798.11521746 -200.83679158 776.20073161 -214.30956863 754.35729428 C-216.31915672 751.09615524 -218.3247397 747.83258626 -220.32909988 744.56823178 C-239.35258601 713.55452351 -239.35258601 713.55452351 -259.29784988 683.13073178 C-271.63839851 685.91271441 -285.26508863 701.76750961 -293.82128738 710.68151303 C-295.81139412 712.64964699 -297.82264452 714.49062537 -299.9331343 716.32396908 C-312.35864852 727.1557737 -324.56122186 738.20881424 -336.53454231 749.53924771 C-341.28405604 754.0256712 -346.06813202 758.44997074 -350.9794905 762.75914975 C-377.5430504 785.86647954 -377.5430504 785.86647954 -388.49474071 818.12642212 C-389.02463372 828.64271665 -388.44578331 839.12451035 -387.68688796 849.61492367 C-387.09332636 858.28469992 -387.47535001 866.86491847 -387.9185221 875.5326788 C-388.1246562 879.77055782 -388.25226195 884.01072495 -388.38793777 888.25133725 C-388.44454447 889.91653691 -388.50168439 891.58171853 -388.55935501 893.24688168 C-388.58806308 894.07661244 -388.61677116 894.9063432 -388.64634918 895.76121731 C-390.27832969 942.64846305 -390.27832969 942.64846305 -391.86034988 965.50573178 C-391.91842819 966.36049099 -391.97650649 967.21525021 -392.03634475 968.09591122 C-393.92876652 995.35493783 -393.92876652 995.35493783 -399.29784988 1001.13073178 C-401.77050613 1002.67760678 -401.77050613 1002.67760678 -404.36034988 1003.88073178 C-405.21757644 1004.28807553 -406.074803 1004.69541928 -406.95800613 1005.11510678 C-411.56228007 1007.11362301 -415.78643508 1007.44671211 -420.73708938 1007.68514462 C-421.58227697 1007.727272 -422.42746456 1007.76939938 -423.29826389 1007.81280334 C-432.62234416 1008.24249042 -441.93790233 1008.27144022 -451.27001785 1008.26012631 C-453.19039782 1008.2614863 -455.11077753 1008.26326955 -457.03115676 1008.26543637 C-462.2039277 1008.26995508 -467.37667843 1008.2682401 -472.54944967 1008.26505728 C-478.05576298 1008.26248643 -483.56207481 1008.26488581 -489.06838821 1008.26644345 C-498.36346573 1008.26825919 -507.65853529 1008.26588245 -516.9536116 1008.26110287 C-526.34359088 1008.25632828 -535.73355424 1008.25622726 -545.12353347 1008.26110287 C-634.43302685 1008.30621952 -634.43302685 1008.30621952 -676.80566238 1007.68541928 C-677.83768665 1007.67070702 -677.83768665 1007.67070702 -678.8905599 1007.65569754 C-692.77870838 1007.45722776 -706.65935854 1007.16498 -720.5395491 1006.64684506 C-721.58601671 1006.60814738 -722.63248432 1006.56944969 -723.71066307 1006.52957936 C-750.132993 1005.46925259 -750.132993 1005.46925259 -757.29784988 1000.13073178 C-762.13361583 993.17752985 -762.54664262 985.95399023 -762.89086746 977.74181576 C-762.93398716 976.71672374 -762.97710687 975.69163172 -763.02153324 974.63547631 C-763.40926372 964.18738763 -763.16977869 953.79791632 -762.80956863 943.35338803 C-762.74543089 941.29596593 -762.68220142 939.23851535 -762.61979507 937.18104 C-762.48582517 932.80151632 -762.34736525 928.42216934 -762.20525955 924.04290219 C-761.82228201 912.1966243 -761.47692078 900.34920096 -761.12988113 888.50182553 C-761.09401901 887.28443692 -761.05815689 886.0670483 -761.02120803 884.81276913 C-760.2781245 859.5047095 -759.71175732 834.19472658 -759.23239349 808.88040753 C-759.1751453 805.87618907 -759.11643217 802.87200314 -759.05721878 799.86782284 C-757.734658 732.41622725 -757.1370021 664.96109561 -757.16255002 597.49730994 C-757.164895 591.12473369 -757.16509504 584.75216011 -757.16403411 578.37958355 C-757.16380426 576.98239566 -757.16380426 576.98239566 -757.16356977 575.55698175 C-757.16324983 573.66083281 -757.16292561 571.76468386 -757.16259718 569.86853492 C-757.15979501 552.3922041 -757.16294557 534.91587866 -757.16839755 517.43954873 C-757.17287126 502.64357323 -757.17207452 487.84760558 -757.16747878 473.05163021 C-757.16205589 455.58610341 -757.16005847 438.12058122 -757.16309105 420.65505369 C-757.16340939 418.77285556 -757.16372376 416.89065742 -757.16403411 415.00845928 C-757.16426553 413.62168311 -757.16426553 413.62168311 -757.16450161 412.20689126 C-757.16534321 405.88037264 -757.16393705 399.55385713 -757.16155456 393.22733898 C-757.14931067 357.53091718 -757.23653908 321.84138632 -757.76122878 286.1483099 C-757.77161024 285.43861035 -757.78199169 284.7289108 -757.79268773 283.99770521 C-758.23032935 254.28602952 -758.93922042 224.58119813 -759.69891189 194.87627621 C-760.53394747 162.20892181 -761.33537732 129.54251567 -761.88378738 96.86901303 C-761.90464904 95.64755959 -761.92551071 94.42610615 -761.94700454 93.16763897 C-762.28708889 73.02657768 -762.43005932 52.88783356 -762.43066238 32.74401303 C-762.43090408 31.95776484 -762.43114578 31.17151665 -762.4313948 30.36144276 C-762.41228899 21.01533876 -762.14910496 14.01312892 -755.29784988 7.13073178 C-746.36530053 0.16334328 -732.93770429 1.90258287 -722.10839675 1.57653256 C-721.41649718 1.55557026 -720.7245976 1.53460797 -720.01173137 1.51301046 C-699.26203154 0.90368593 -678.50346911 0.98428115 -657.74688362 0.99640627 C-651.90697905 0.99899151 -646.06707582 0.99657511 -640.22717117 0.99502011 C-630.41397652 0.99321369 -620.60078946 0.99556177 -610.78759597 1.00036068 C-599.58788603 1.00577587 -588.38819438 1.00405442 -577.18848489 0.99853428 C-567.4410605 0.99392959 -557.69364147 0.9933885 -547.94621633 0.99597295 C-542.18330263 0.99749921 -536.42039737 0.99783467 -530.65748428 0.99443646 C-507.05174278 0.98247322 -483.45602268 1.10412424 -459.8544905 1.57653256 C-458.85316935 1.59594458 -457.8518482 1.6153566 -456.82018398 1.63535686 C-446.66748088 1.83718576 -436.52342173 2.1190952 -426.38024734 2.61068173 C-425.57903662 2.64885765 -424.77782589 2.68703358 -423.95233606 2.72636636 C-403.20375026 3.80412509 -403.20375026 3.80412509 -397.29784988 8.13073178 C-389.44114335 23.75999316 -392.18138854 47.29251335 -391.77441238 64.55675717 C-391.75356079 65.4137534 -391.73270919 66.27074963 -391.71122573 67.15371545 C-391.24947371 86.25226774 -391.01581008 105.35181741 -390.82552932 124.45469756 C-390.77764221 129.18576921 -390.72603153 133.91680044 -390.674803 138.64783688 C-390.55659796 149.61605296 -390.44259183 160.58431056 -390.32909988 171.55257626 C-390.15548554 188.3065295 -389.9787856 205.06044974 -389.79784988 221.81432553 C-389.78760182 222.76474877 -389.77735375 223.71517202 -389.76679514 224.69439597 C-389.50208422 249.18482076 -389.20325609 273.67389023 -388.77050613 298.16198178 C-388.75067169 299.29568644 -388.73083724 300.4293911 -388.71040176 301.59745045 C-388.41712638 318.11493778 -388.01088864 334.6253747 -387.29784988 351.13073178 C-384.11906168 351.13073178 -382.81069748 348.88446169 -380.67683242 346.76195736 C-380.052901 346.13084042 -379.42896957 345.49972348 -378.78613113 344.84948178 C-378.13968139 344.20257382 -377.49323165 343.55566586 -376.82719253 342.88915463 C-375.45379631 341.51272977 -374.08283885 340.13386796 -372.71410964 338.75280209 C-370.64151384 336.66216698 -368.56124701 334.57942834 -366.4794905 332.49791928 C-365.14373539 331.15724021 -363.8084351 329.81610782 -362.47363113 328.47448178 C-361.55291572 327.55209713 -361.55291572 327.55209713 -360.6136 326.61107846 C-356.88182149 322.8391944 -353.33221777 318.95383433 -349.87589858 314.92772885 C-347.47767525 312.19676098 -344.89901512 309.6664047 -342.29784988 307.13073178 C-338.35294091 303.23955319 -334.59778598 299.27883186 -331.00488113 295.05651303 C-328.30806975 292.01411483 -325.38250591 289.20747369 -322.48925613 286.35338803 C-319.8768392 283.70371738 -317.46482367 280.91900375 -315.04394363 278.09557553 C-312.57425628 275.31648663 -309.91881666 272.74212682 -307.27050613 270.13463803 C-304.72447158 267.54827026 -302.37763431 264.81537898 -300.01269363 262.06432553 C-297.82628164 259.59900904 -295.49148095 257.31128511 -293.14037918 255.00451107 C-291.36760964 253.20167469 -289.71096724 251.34492156 -288.06347488 249.42760678 C-284.33412948 245.13846535 -280.46015229 241.00265585 -276.54784988 236.88073178 C-270.96068317 230.96959682 -265.41779557 225.02523131 -259.93456863 219.01745053 C-257.08684367 215.89971906 -254.2256839 212.79476786 -251.36034988 209.69323178 C-250.86188552 209.15351742 -250.36342117 208.61380307 -249.84985183 208.05773373 C-247.8259667 205.86663395 -245.80164209 203.67594043 -243.77734207 201.48522396 C-229.55660553 186.09499065 -229.55660553 186.09499065 -215.48534988 170.56823178 C-213.21922671 168.04312311 -210.94594372 165.5245655 -208.67284988 163.00573178 C-203.88650246 157.68390659 -199.16120227 152.31560643 -194.51269363 146.87291928 C-193.48277509 145.66716501 -192.45282635 144.46143655 -191.42284988 143.25573178 C-190.6433699 142.34295468 -190.6433699 142.34295468 -189.84814285 141.41173764 C-186.81892455 137.8744932 -183.74636405 134.38680601 -180.61034988 130.94323178 C-176.83616301 126.78350969 -173.27998875 122.48039028 -169.74706863 118.11510678 C-166.97973751 114.74311161 -164.14619745 111.43424152 -161.29784988 108.13073178 C-156.19900424 102.2084106 -151.21997938 96.20109051 -146.29784988 90.13073178 C-145.3022912 88.91675111 -144.30616034 87.70323954 -143.30956863 86.49010678 C-137.09412039 78.90718442 -131.03065218 71.23159591 -125.10571121 63.41955014 C-121.07532965 58.11513807 -116.93553116 52.91019399 -112.74902175 47.72863217 C-109.13455704 43.23257617 -105.6685599 38.64111905 -102.23534988 34.00573178 C-80.81379852 5.23875547 -80.81379852 5.23875547 -70.29784988 1.13073178 C-67.76987826 0.89471495 -65.34242176 0.7614826 -62.81142639 0.7212183 C-62.06844485 0.70216078 -61.32546331 0.68310326 -60.55996718 0.66346824 C-58.11038351 0.60369804 -55.66078028 0.55830526 -53.21087478 0.51381893 C-51.48556154 0.47622831 -49.76025721 0.43822692 -48.03496169 0.39983208 C-32.02385169 0.06117803 -16.0141183 -0.01377739 0 0 Z M-74.29784988 36.13073178 C-75.90190384 38.35424422 -77.59011484 40.4837896 -79.29784988 42.63073178 C-79.76481277 43.23763851 -80.23177566 43.84454525 -80.71288894 44.4698431 C-81.0760823 44.94188168 -81.43927566 45.41392025 -81.81347488 45.90026303 C-83.42938248 48.00081686 -85.0437015 50.10256162 -86.65722488 52.20495053 C-89.20016809 55.51659389 -91.74732979 58.82492245 -94.29784988 62.13073178 C-94.82394851 62.8129681 -95.35004714 63.49520443 -95.89208816 64.19811459 C-103.76217683 74.39309518 -111.76392752 84.464119 -119.9169905 94.43395443 C-121.77189771 96.71323397 -123.59796911 99.01487617 -125.42284988 101.31823178 C-128.9170735 105.70256289 -132.53095433 109.977662 -136.16381668 114.24694271 C-139.06134448 117.65579895 -141.91548111 121.09448039 -144.73534988 124.56823178 C-149.62901346 130.57646642 -154.67811779 136.44532311 -159.73632644 142.31481381 C-161.30043518 144.13373826 -162.85866064 145.95753257 -164.41503738 147.78307553 C-168.88016911 153.0171315 -173.35448317 158.22910221 -177.98534988 163.31823178 C-180.93917169 166.56743577 -183.74234736 169.88947863 -186.48534988 173.31823178 C-191.39020583 179.38680575 -196.72539988 185.01779841 -202.07519363 190.69323178 C-204.97102642 193.76845244 -207.77306584 196.90952703 -210.52831863 200.11120053 C-213.38003166 203.36580459 -216.32672778 206.53369619 -219.2582991 209.716181 C-221.74941019 212.4256161 -224.2096087 215.15350975 -226.61034988 217.94323178 C-230.62812143 222.58061147 -234.84979754 227.02760737 -239.04540847 231.50329037 C-242.31313064 234.99272918 -245.55345353 238.49991918 -248.73534988 242.06823178 C-253.85035656 247.78946148 -259.11824473 253.36532616 -264.37597488 258.95495053 C-266.95737293 261.69976877 -269.53036764 264.45201809 -272.09472488 267.21276303 C-277.45793384 272.98568132 -282.81899379 278.72732996 -288.44604324 284.24596615 C-290.20428224 286.0354988 -291.83337555 287.8802152 -293.45800613 289.79088803 C-298.2322238 295.28316624 -303.43996969 300.3208026 -308.62597488 305.41979428 C-309.38394363 306.17002865 -310.14191238 306.92026303 -310.92284988 307.69323178 C-311.5957405 308.35452084 -312.26863113 309.0158099 -312.96191238 309.69713803 C-314.8464986 311.6605113 -316.61644934 313.6519059 -318.38554214 315.71644039 C-322.47775902 320.40351217 -326.82686588 324.80023116 -331.23071121 329.19298764 C-332.52952728 330.49443219 -332.52952728 330.49443219 -333.85458206 331.82216854 C-336.20566689 334.17687406 -338.55894497 336.52934176 -340.91343354 338.88064094 C-343.38436148 341.3490195 -345.85282884 343.81985687 -348.32169937 346.29029293 C-352.45966016 350.43006589 -356.59970946 354.56774137 -360.74096511 358.7042181 C-365.52982429 363.48761487 -370.31504136 368.2746325 -375.09842496 373.06350435 C-379.21392221 377.18353424 -383.3313581 381.30161909 -387.45043223 385.41807295 C-389.90729541 387.87337697 -392.36347739 390.3293522 -394.81790946 392.78708668 C-397.54640624 395.51899929 -400.2789635 398.24682738 -403.01196121 400.97423764 C-403.82598907 401.79028973 -404.64001693 402.60634182 -405.47871231 403.44712277 C-406.59095169 404.55513241 -406.59095169 404.55513241 -407.72566055 405.68552609 C-408.37104184 406.33053035 -409.01642312 406.97553461 -409.68136142 407.64008446 C-411.29784988 409.13073178 -411.29784988 409.13073178 -413.29784988 410.13073178 C-413.29784988 283.08073178 -413.29784988 156.03073178 -413.29784988 25.13073178 C-521.86784988 25.13073178 -630.43784988 25.13073178 -742.29784988 25.13073178 C-742.29784988 32.02995853 -742.05571865 38.57281146 -741.38769363 45.39245053 C-739.93288173 61.63911955 -739.47894427 77.92332508 -738.94935058 94.22059841 C-738.85887568 96.98832932 -738.7661801 99.75597803 -738.6728804 102.52361508 C-737.12332528 148.5856641 -735.95689124 194.65887859 -734.80979751 240.73240109 C-734.4760212 254.13011995 -734.1312058 267.52745699 -733.77062629 280.92448063 C-731.5765547 362.55075306 -731.02317908 444.16574313 -733.21500991 700.09506436 C-733.2995988 704.2095378 -733.38303642 708.32403424 -733.46642898 712.43853207 C-734.6984525 773.134221 -736.11407422 833.82417522 -737.92284988 894.50573178 C-737.95425441 895.56130528 -737.98565895 896.61687878 -738.01801513 897.70443936 C-739.13776555 935.25609727 -739.13776555 935.25609727 -739.81738113 951.79088803 C-739.85090682 952.64600979 -739.88443252 953.50113156 -739.91897415 954.3821661 C-740.20864637 960.9277789 -740.9479078 967.37236879 -741.89550613 973.85338803 C-742.41970029 977.57295554 -742.41970029 977.57295554 -742.29784988 983.13073178 C-633.72784988 983.13073178 -525.15784988 983.13073178 -413.29784988 983.13073178 C-415.00972488 953.65760678 -416.72159988 924.18448178 -418.48534988 893.81823178 C-419.39043713 858.53121752 -419.39043713 858.53121752 -418.53222488 841.45104428 C-418.45888758 839.90897801 -418.45888758 839.90897801 -418.38406871 838.33575888 C-416.35378101 798.18726773 -405.29744075 770.27204157 -375.30374651 743.16549779 C-372.64429546 740.80573226 -369.94706354 738.49260399 -367.23534988 736.19323178 C-366.69988021 735.73697777 -366.16441054 735.28072376 -365.61271451 734.81064387 C-353.65684091 724.65268899 -341.26330055 715.15757329 -328.0571606 706.66469307 C-320.68357437 701.90650626 -314.3594212 696.34554493 -308.20409988 690.09948178 C-307.31851394 689.20616146 -306.432928 688.31284115 -305.52050613 687.39245053 C-304.62202957 686.48108334 -303.723553 685.56971615 -302.79784988 684.63073178 C-297.37477681 679.12985278 -291.96434586 673.70738391 -286.0942366 668.68200131 C-283.87832394 666.76845021 -281.75685862 664.76767383 -279.63183425 662.75451107 C-274.68160886 658.08150466 -269.6139876 653.57190632 -264.29784988 649.31823178 C-263.77038162 648.87954769 -263.24291336 648.44086361 -262.69946121 647.98888607 C-260.39110771 646.18923418 -258.69147582 645.17191111 -255.75878738 644.86510678 C-251.77035129 646.91630248 -250.14742651 650.40242577 -247.92284988 654.19323178 C-246.86070587 655.9395421 -245.7981884 657.68562531 -244.73534988 659.43151303 C-244.17718582 660.36044369 -243.61902175 661.28937435 -243.04394363 662.24645443 C-240.67875576 666.1533797 -238.24480382 670.01540016 -235.81127761 673.87999935 C-229.6657793 683.64526371 -223.62586966 693.47271658 -217.64257644 703.33800717 C-213.18539015 710.68510692 -208.68496329 718.00475886 -204.17284988 725.31823178 C-199.03795102 733.64720353 -193.94740867 741.99953653 -188.93041824 750.40001889 C-185.09043443 756.82552794 -181.20439034 763.22219759 -177.31051467 769.61516781 C-170.32484753 781.08656479 -163.43281297 792.61028049 -156.59176467 804.1684515 C-151.05208072 813.52538371 -145.45818078 822.84631543 -139.79784988 832.13073178 C-130.50113359 847.38704969 -121.39155171 862.75278166 -112.29784988 878.13073178 C-111.67362136 879.18582943 -111.04939285 880.24092709 -110.40624832 881.3279974 C-107.20567299 886.73828009 -104.00822438 892.1504008 -100.8129866 897.56383725 C-98.20478515 901.98256589 -95.59527372 906.40052029 -92.98534988 910.81823178 C-92.45635086 911.71364682 -91.92735183 912.60906185 -91.38232253 913.53161068 C-87.02691862 920.90159397 -82.66311586 928.2665868 -78.29784988 935.63073178 C-73.27330055 944.10770264 -68.25045734 952.58567074 -63.23534988 961.06823178 C-62.73583816 961.91256771 -62.23632644 962.75690365 -61.721678 963.62682553 C-61.24021316 964.44151303 -60.75874832 965.25620053 -60.26269363 966.09557553 C-59.79062832 966.84891383 -59.31856302 967.60225214 -58.8321927 968.37841888 C-57.29784988 971.13073178 -57.29784988 971.13073178 -56.26207988 974.19671388 C-54.7328134 978.04872305 -53.36549634 980.31052501 -50.29784988 983.13073178 C-43.2809424 985.52490638 -35.26806034 984.69414206 -27.96851943 984.57378598 C-25.62782398 984.57901805 -23.28713534 984.58952354 -20.94648425 984.60485597 C-15.18329243 984.62891212 -9.42228468 984.59711327 -3.6593508 984.54196787 C3.24326748 984.47909108 10.1453617 984.48610258 17.04819656 984.49570134 C29.78683687 984.51146475 42.52473 984.47138614 55.26315285 984.39949246 C67.8759084 984.32849046 80.48835275 984.28230183 93.10130669 984.26925869 C93.88549779 984.26843382 94.66968889 984.26760894 95.47764336 984.26675907 C99.46014579 984.26269908 103.44264849 984.25908247 107.42515149 984.25563656 C135.63415128 984.23043077 163.84274456 984.14958068 192.05151536 984.03600521 C219.45611576 983.92579487 246.86060493 983.84079034 274.26538254 983.78991146 C275.11009751 983.78833315 275.95481247 983.78675484 276.82512486 983.78512869 C285.30809105 983.76930647 293.79105811 983.7539967 302.27402591 983.73906238 C319.55484722 983.70862773 336.83566128 983.6747727 354.11647202 983.63884945 C355.30829057 983.63637823 355.30829057 983.63637823 356.52418627 983.63385709 C409.58367852 983.52344689 462.6429384 983.33305464 515.70215012 983.13073178 C516.37778437 978.59229978 516.8319035 974.24841396 516.85363938 969.658457 C516.86198083 968.39526292 516.87032229 967.13206885 516.87891652 965.83059616 C516.8832285 964.44374384 516.8874544 963.05689124 516.89160325 961.67003842 C516.89958279 960.18953779 516.90799221 958.70903944 516.91679455 957.22854348 C516.93490091 954.0256457 516.94994683 950.82275317 516.962631 947.61982937 C516.98311488 942.44865153 517.01029575 937.27752096 517.03822495 932.10637875 C517.0776803 924.67396693 517.11393746 917.24154552 517.14798142 909.80910702 C517.20132071 898.18931871 517.26123731 886.56956986 517.32299973 874.94982357 C517.33069132 873.50188127 517.33069132 873.50188127 517.3385383 872.0246876 C517.36454841 867.13319788 517.39066267 862.24170873 517.41684319 857.35021992 C517.43789168 853.41186794 517.45868834 849.47351474 517.47926308 845.53516026 C517.67609226 807.86523308 517.9414864 770.19608416 518.24773957 732.52690096 C518.27599451 729.04540939 518.30399723 725.56391579 518.33203293 722.08242245 C518.452823 707.09850389 518.57595546 692.11460582 518.70215012 677.13073178 C543.74550677 676.48816817 568.78608032 676.03810287 593.83681084 675.81208153 C605.47129751 675.70270425 617.09869316 675.5323169 628.72949387 675.21398373 C638.87728174 674.93639989 649.0191004 674.77767152 659.17077698 674.75677849 C664.54113613 674.74169924 669.89646631 674.67051757 675.26288392 674.45644398 C708.74238066 673.17841488 708.74238066 673.17841488 717.64309098 681.37623425 C724.69417311 688.92284022 729.48264577 698.00802884 733.84618928 707.28945561 C736.15031131 712.176999 739.05247259 716.60205762 742.07715012 721.06823178 C742.99227471 722.52002731 743.90192653 723.97530108 744.80371262 725.43541928 C745.26165207 726.17630795 745.71959153 726.91719662 746.19140793 727.68053646 C746.68995286 728.48910092 747.18849778 729.29766537 747.70215012 730.13073178 C748.29092942 731.08367123 748.87970872 732.03661068 749.48632981 733.01842709 C753.54926313 739.59778439 757.59782022 746.18588742 761.64209153 752.77672787 C763.65209979 756.04924428 765.66646188 759.31903182 767.68261887 762.58776303 C781.1003169 784.34408727 794.38868736 806.16980575 807.4073198 828.16707821 C812.98464312 837.58977826 818.62399847 846.97121147 824.32715012 856.31823178 C832.27982317 869.35816255 840.02216943 882.51605995 847.7104509 895.71325131 C849.58878604 898.93621469 851.47087752 902.15694656 853.35449387 905.37682553 C862.90941477 921.7182449 872.37686745 938.1102093 881.80101182 954.52736874 C883.16721526 956.90670349 884.53495268 959.2851546 885.90286423 961.66350766 C886.86344877 963.33513568 887.82177191 965.00806256 888.78003098 966.68102475 C889.36663498 967.70083432 889.95323899 968.72064389 890.55761887 969.77135678 C891.06961838 970.66371029 891.58161789 971.55606381 892.10913254 972.47545834 C892.89767624 973.78981869 892.89767624 973.78981869 893.70215012 975.13073178 C894.48621483 976.67359608 894.48621483 976.67359608 895.28611924 978.24762936 C897.48949264 981.48153824 897.48949264 981.48153824 901.37033249 981.8947546 C902.89699496 981.93236444 904.42468078 981.93665873 905.95166184 981.91564389 C906.80460454 981.92783774 907.65754723 981.94003159 908.53633668 981.95259495 C911.44365491 981.98688541 914.34934775 981.97826913 917.25683762 981.97057553 C919.37810599 981.98688151 921.49935471 982.00592927 923.62057664 982.02744503 C928.36181838 982.06999637 933.10269959 982.09350119 937.84411789 982.10454769 C945.43028443 982.124348 953.01553834 982.18882314 960.60132779 982.26213999 C978.97767871 982.43893709 997.35424496 982.55639673 1015.73111512 982.6633627 C1020.887919 982.69343456 1026.04471428 982.72484493 1031.20150925 982.75640316 C1122.79057951 983.33943959 1122.79057951 983.33943959 1214.37759186 982.7245657 C1215.91646922 982.70382238 1217.45535118 982.68341652 1218.99423768 982.6633627 C1223.91785596 982.59917002 1228.8412415 982.52582615 1233.76465012 982.44713803 C1235.60974419 982.42205418 1235.60974419 982.42205418 1237.49211289 982.39646359 C1239.19129616 982.36656086 1239.19129616 982.36656086 1240.92480637 982.33605404 C1242.39059128 982.31273762 1242.39059128 982.31273762 1243.88598801 982.28895016 C1246.88216129 982.12061834 1249.75301037 981.67516919 1252.70215012 981.13073178 C1246.19640738 963.30372104 1230.5441529 946.71019407 1219.62793137 931.27135678 C1217.66331146 928.49268233 1215.70261005 925.71130758 1213.74511887 922.92760678 C1208.07174001 914.86440784 1202.34267349 906.84508437 1196.55786301 898.86144467 C1192.90227206 893.81013219 1189.28867946 888.73127111 1185.70215012 883.63073178 C1180.99177926 876.9329054 1176.21898291 870.2826573 1171.41699387 863.65026303 C1168.16264229 859.15504358 1164.92230151 854.65050762 1161.70215012 850.13073178 C1155.74181953 841.76878499 1149.71973668 833.45151736 1143.70215012 825.13073178 C1137.28324644 816.25502709 1130.86692374 807.37812659 1124.51001145 798.45788021 C1121.09351761 793.66805615 1117.64976057 788.89819309 1114.20215012 784.13073178 C1109.9506729 778.25165886 1105.71612827 772.3612544 1101.50634934 766.45226498 C1098.13508753 761.7250668 1094.73216256 757.02115483 1091.32715012 752.31823178 C1086.57581796 745.75315923 1081.8794971 739.15207925 1077.21997239 732.52160092 C1073.61412223 727.3989902 1069.94808991 722.32273437 1066.26465012 717.25573178 C1061.17202822 710.24184066 1056.23975271 703.13048929 1051.37085129 695.95983334 C1048.17336728 691.25693798 1044.91329675 686.61097745 1041.57715012 682.00573178 C1037.80544386 676.75039435 1034.11481594 671.44262551 1030.51465012 666.06823178 C1030.02013352 665.35328549 1029.52561692 664.6383392 1029.01611497 663.90172787 C1028.56832688 663.2231976 1028.12053879 662.54466732 1027.65918137 661.84557553 C1027.25675217 661.24865902 1026.85432297 660.65174252 1026.43969895 660.03673764 C1025.36697334 657.26455331 1025.58103081 655.87658648 1026.70215012 653.13073178 C1029.30859543 651.51232357 1029.30859543 651.51232357 1032.78027512 650.14245053 C1033.40524888 649.89234722 1034.03022263 649.64224392 1034.67413498 649.38456173 C1041.14508563 646.84581518 1047.75477466 644.71055933 1054.37674119 642.60598202 C1074.8786274 636.05901681 1094.77570885 628.1478879 1113.83789231 618.10338803 C1115.78374493 617.08816057 1117.74484835 616.10810018 1119.70996262 615.13073178 C1136.93781283 606.44585177 1152.87653957 595.44698361 1167.70215012 583.13073178 C1168.26418137 582.6702142 1168.82621262 582.20969662 1169.40527512 581.73522396 C1182.74726975 570.77465517 1195.1477414 558.82633357 1205.70215012 545.13073178 C1206.71700077 543.85537563 1207.73268792 542.58068485 1208.74902512 541.30651303 C1216.5871826 531.38547225 1223.469758 521.12946944 1229.70215012 510.13073178 C1230.15831711 509.32684017 1230.61448411 508.52294857 1231.08447434 507.69469662 C1258.34321352 459.04495526 1268.11658857 406.59556418 1268.01782395 351.40294857 C1268.01321725 348.61241891 1268.02004245 345.82232778 1268.03833176 343.03185482 C1268.47895422 275.07181888 1251.94972569 210.81453024 1208.70215012 157.13073178 C1207.90422043 156.12655209 1207.10629075 155.1223724 1206.28418137 154.08776303 C1199.42430652 145.67409461 1191.7885593 138.00576684 1184.13965012 130.31823178 C1183.6090297 129.78234433 1183.07840928 129.24645687 1182.53170945 128.69433041 C1175.59441605 121.70390076 1168.4698462 115.20929981 1160.70215012 109.13073178 C1159.67794968 108.31753475 1159.67794968 108.31753475 1158.63305832 107.48790951 C1115.60710078 73.60686145 1063.48904838 55.92085106 1010.59185959 44.53838558 C1008.95217531 44.18466796 1007.31407158 43.82363872 1005.67627122 43.46129818 C999.71308859 42.15247357 993.73165628 41.08579238 987.70215012 40.13073178 C987.04885727 40.02672055 986.39556443 39.92270932 985.72247483 39.81554623 C939.91896277 32.55642388 894.05151587 28.39067443 847.70215012 27.13073178 C846.3306279 27.09202969 846.3306279 27.09202969 844.93139817 27.05254574 C831.32736837 26.66936374 817.72232369 26.40536606 804.11474778 26.18609066 C800.60478878 26.12915239 797.09487692 26.06975213 793.58496262 26.01012631 C753.21786174 25.33455313 712.84682089 24.95942136 672.47558762 24.63463803 C671.81115886 24.6292812 671.1467301 24.62392437 670.46216713 24.61840521 C618.07521557 24.19675933 565.6881747 23.96826732 513.29980637 23.81432553 C512.35408107 23.81153831 511.40835578 23.8087511 510.43397214 23.80587943 C463.7437402 23.66860984 417.053451 23.56358208 370.36310491 23.47425385 C365.04612426 23.4640506 359.72914389 23.45370109 354.41216351 23.44335385 C353.35855388 23.44130602 352.30494426 23.4392582 351.21940706 23.43714832 C345.89641008 23.42680192 340.57341313 23.4164349 335.25041623 23.40604182 C325.67944107 23.38738701 316.10846575 23.3689264 306.53748835 23.35145752 C256.21718399 23.25956502 205.89852209 23.09962473 155.57915588 22.77460493 C154.70430853 22.76895592 153.82946118 22.7633069 152.92810331 22.75748671 C151.17171535 22.74613784 149.41532752 22.73476813 147.65893983 22.72337731 C134.93366091 22.64112678 122.20837139 22.57128708 109.48295762 22.51359005 C108.66952957 22.50988759 107.85610153 22.50618512 107.01802415 22.50237045 C98.98551101 22.46599409 90.95299219 22.43133754 82.92046137 22.39910012 C79.02484309 22.38336914 75.12922766 22.36702011 71.23361374 22.35024472 C70.47064408 22.34696237 69.70767441 22.34368003 68.92158445 22.34029823 C56.75786613 22.28656374 44.5949109 22.1879112 32.43165196 22.07107221 C20.41197279 21.95638505 8.39275704 21.8870055 -3.6274588 21.86600818 C-10.03817959 21.85274059 -16.44691116 21.81833864 -22.85701965 21.72583027 C-28.65978543 21.64227968 -34.45959049 21.61809622 -40.26288067 21.64207394 C-42.34904657 21.64008039 -44.4353338 21.61604041 -46.52093802 21.5675927 C-61.20035632 21.24277035 -66.91336207 23.10767667 -74.29784988 36.13073178 Z " fill="#010101" transform="translate(800.2978498786688,628.8692682236433)"/>
<path d="M0 0 C0.3896009 7.05625307 0.76302628 14.11322608 1.12164211 21.17112446 C1.28901161 24.45751058 1.46130543 27.74340376 1.64282227 31.02905273 C2.75231667 51.19621637 3.23382554 71.36745268 3.53881836 91.56152344 C3.54953301 92.26133696 3.56024767 92.96115048 3.57128701 93.68217047 C4.20615985 135.45815938 4.14753067 177.23749625 4.13530017 219.01726786 C4.1329846 227.14259633 4.13274301 235.26792271 4.13381577 243.39325142 C4.133969 244.5671849 4.13412223 245.74111839 4.13428011 246.95062562 C4.13459994 249.3379865 4.13492416 251.72534739 4.1352527 254.11270828 C4.13807339 276.2571927 4.13487283 298.40167292 4.12945233 320.54615665 C4.12496902 339.44703295 4.1257794 358.34790311 4.13037109 377.2487793 C4.13574619 399.38370586 4.13781801 421.5186288 4.13475883 443.65355593 C4.13444038 446.02071639 4.13412601 448.38787685 4.13381577 450.75503731 C4.13366149 451.91877491 4.13350721 453.08251251 4.13334826 454.28151489 C4.13249325 462.39012539 4.13392341 470.49873354 4.13629532 478.60734367 C4.13912561 488.496347 4.1382872 498.38534241 4.13301457 508.27434485 C4.13042335 513.29586053 4.12929285 518.31736311 4.13266373 523.33887863 C4.14367368 541.47259843 4.10664077 559.60371663 3.67289458 577.73315264 C3.63621795 579.27955606 3.60215808 580.82602428 3.57100655 582.37254887 C3.18901905 600.62196189 3.18901905 600.62196189 0 607 C-4.89821992 606.85156909 -6.94343338 604.33541606 -10.15161133 601.03051758 C-13.08919241 597.80348523 -15.70774567 594.37262943 -18.3125 590.875 C-19.45423849 589.36183685 -20.59616724 587.84881724 -21.73828125 586.3359375 C-22.29338379 585.59698242 -22.84848633 584.85802734 -23.42041016 584.09667969 C-25.59204362 581.21414674 -27.79449943 578.35671688 -30 575.5 C-35.41371104 568.46739788 -40.80689443 561.41921085 -46.19335938 554.36572266 C-47.42876827 552.74800479 -48.66445851 551.13050175 -49.90039062 549.51318359 C-57.765963 539.2185374 -65.5938268 528.89772639 -73.3527832 518.52246094 C-77.88661298 512.46625827 -82.46700344 506.4469955 -87.0625 500.4375 C-92.6933271 493.07077245 -98.23220181 485.64396646 -103.71118164 478.16381836 C-108.07284214 472.22305295 -112.52069361 466.35243827 -117 460.5 C-122.67230923 453.08717638 -128.26147242 445.62071943 -133.78125 438.09375 C-137.98326257 432.36719772 -142.23057683 426.67644214 -146.5 421 C-153.1449767 412.16060375 -159.71854815 403.27059384 -166.26611328 394.35888672 C-168.59076798 391.19628271 -170.91926349 388.03651765 -173.24804688 384.87695312 C-174.99783974 382.50293092 -176.74696693 380.1284192 -178.49609375 377.75390625 C-180.84012017 374.57249389 -183.18670882 371.39299384 -185.53515625 368.21484375 C-191.7740968 359.76742867 -197.97058997 351.29241591 -204.10571289 342.76928711 C-208.03399132 337.31892714 -212.00738232 331.90336463 -216 326.5 C-226.99922749 311.60217767 -237.8202349 296.58579391 -248.35742188 281.35693359 C-249.93351605 279.09539775 -251.53403895 276.85321333 -253.140625 274.61328125 C-254.07363706 273.28435965 -255.00597268 271.95496277 -255.9375 270.625 C-256.36893311 270.0369458 -256.80036621 269.4488916 -257.24487305 268.84301758 C-259.18394861 266.03031506 -260.00365483 264.32487381 -259.96484375 260.875 C-258.9176304 257.75455859 -257.74000264 255.88710518 -255.625 253.375 C-254.54412109 252.08722656 -254.54412109 252.08722656 -253.44140625 250.7734375 C-249.56242207 246.36691147 -245.60596318 242.04167683 -241.60351562 237.74755859 C-240.39753596 236.4332464 -239.20589743 235.1057527 -238.02148438 233.77197266 C-232.36261623 227.40010718 -226.4434317 221.35599033 -220.375 215.375 C-214.98752595 210.06448986 -209.70702959 204.75911265 -204.78320312 199.01464844 C-201.21857968 194.98736577 -197.37318443 191.2300239 -193.5625 187.4375 C-192.75490234 186.62603516 -191.94730469 185.81457031 -191.11523438 184.97851562 C-190.31537109 184.17994141 -189.51550781 183.38136719 -188.69140625 182.55859375 C-187.98185791 181.85017334 -187.27230957 181.14175293 -186.54125977 180.41186523 C-184.51394286 178.48777418 -182.45867266 176.6629914 -180.33959961 174.84399414 C-175.28086861 170.44428312 -170.59175968 165.69794123 -165.875 160.9375 C-164.9194063 159.97748625 -163.96350816 159.01777547 -163.00732422 158.05834961 C-160.0020245 155.04173631 -157.00070388 152.02118404 -154 149 C-150.51706989 145.49329849 -147.03243498 141.98832534 -143.54351807 138.48757935 C-142.16346867 137.1011466 -140.78652256 135.71162702 -139.40966797 134.32202148 C-135.0545443 129.95006206 -130.63824556 125.75189319 -125.95727539 121.73242188 C-122.27911395 118.47681085 -118.85889256 114.95995702 -115.40625 111.46875 C-114.61528931 110.67400269 -113.82432861 109.87925537 -113.00939941 109.0604248 C-110.50380477 106.54271568 -108.00149142 104.02178554 -105.5 101.5 C-102.2008832 98.17411811 -98.89835626 94.85167664 -95.59375 91.53125 C-94.85080688 90.78000854 -94.10786377 90.02876709 -93.34240723 89.25476074 C-89.36239727 85.25634664 -85.28400453 81.46803164 -81.0111084 77.78625488 C-77.31931031 74.50722111 -73.87708134 70.97834896 -70.40625 67.46875 C-69.61528931 66.67400269 -68.82432861 65.87925537 -68.00939941 65.0604248 C-65.50380477 62.54271568 -63.00149142 60.02178554 -60.5 57.5 C-57.2008832 54.17411811 -53.89835626 50.85167664 -50.59375 47.53125 C-49.47933533 46.40438782 -49.47933533 46.40438782 -48.34240723 45.25476074 C-44.34523071 41.23910069 -40.24905745 37.43222283 -35.95733643 33.73471069 C-32.58454473 30.74553737 -29.44677602 27.52946908 -26.2890625 24.31640625 C-24.86601296 22.88073294 -23.44283223 21.44518966 -22.01953125 20.00976562 C-19.80556407 17.77081401 -17.59324756 15.5302738 -15.38330078 13.28735352 C-13.23119197 11.10522957 -11.07305801 8.92921352 -8.9140625 6.75390625 C-8.24952057 6.07590469 -7.58497864 5.39790314 -6.90029907 4.69935608 C-5.97826187 3.77225075 -5.97826187 3.77225075 -5.03759766 2.82641602 C-4.22773911 2.00537132 -4.22773911 2.00537132 -3.40151978 1.16773987 C-2 0 -2 0 0 0 Z M-25.56640625 55.50390625 C-26.87919153 56.85779635 -28.1916995 58.21195542 -29.50390625 59.56640625 C-31.52139864 61.5333824 -33.56577602 63.36741928 -35.70092773 65.20092773 C-39.73155174 68.71672821 -43.52615867 72.41271703 -47.28125 76.21875 C-47.93903442 76.88032104 -48.59681885 77.54189209 -49.27453613 78.22351074 C-51.35217274 80.31322735 -53.42650627 82.40617315 -55.5 84.5 C-58.2365815 87.263417 -60.97662263 90.02333722 -63.71875 92.78125 C-64.63630066 93.71124817 -64.63630066 93.71124817 -65.5723877 94.66003418 C-68.39031648 97.49362768 -71.23215975 100.22474839 -74.29112244 102.79707336 C-81.16376588 108.78758816 -87.51611022 115.34225178 -93.96899414 121.77612305 C-95.47899312 123.27820996 -96.98917042 124.78011764 -98.49951172 126.28186035 C-103.43178581 131.18807823 -108.35875297 136.09960699 -113.28515625 141.01171875 C-114.98403162 142.70523079 -116.68291407 144.39873573 -118.38180351 146.09223366 C-125.44173557 153.13057591 -132.50024317 160.17034153 -139.55503178 167.21383953 C-149.66190177 177.30442409 -159.77720034 187.38638922 -169.90428263 197.45668954 C-177.03070672 204.54450989 -184.14761118 211.64179857 -191.25740904 218.74629623 C-195.50388861 222.98911403 -199.7544915 227.22760415 -204.01527596 231.45606041 C-208.01443241 235.42529909 -212.00173152 239.40606524 -215.98003387 243.39620209 C-217.44512 244.8615102 -218.91452815 246.32251095 -220.38843346 247.77894783 C-222.39251576 249.76055359 -224.38075998 251.75677858 -226.36561584 253.75761414 C-226.95838682 254.33650302 -227.55115779 254.91539191 -228.16189152 255.51182288 C-229.94610313 257.27210726 -229.94610313 257.27210726 -232 260 C-231.54565441 263.24271947 -230.2622395 265.38430024 -228.41015625 268.0546875 C-227.87841797 268.8269165 -227.34667969 269.59914551 -226.79882812 270.39477539 C-226.22583984 271.21324951 -225.65285156 272.03172363 -225.0625 272.875 C-224.47275391 273.72634521 -223.88300781 274.57769043 -223.27539062 275.45483398 C-218.68425189 282.06609863 -214.03892639 288.63801631 -209.32617188 295.16308594 C-207.87600362 297.17175051 -206.43013057 299.18346979 -204.984375 301.1953125 C-197.65131332 311.38740526 -190.22794128 321.51080704 -182.76611328 331.60888672 C-179.84043897 335.56991162 -176.92049694 339.53515717 -174 343.5 C-172.8333611 345.08335379 -171.66669442 346.66668712 -170.5 348.25 C-149.5 376.75 -149.5 376.75 -147.74951172 379.12573242 C-146.58456151 380.70668983 -145.41952266 382.28758192 -144.25439453 383.8684082 C-141.3107302 387.86255828 -138.36868654 391.8578843 -135.4296875 395.85546875 C-129.50069967 403.91681185 -123.54800424 411.9581478 -117.52978516 419.953125 C-113.73267562 425.00426841 -109.98752005 430.09216805 -106.25 435.1875 C-101.16076633 442.12303718 -95.98109546 448.98342416 -90.75 455.8125 C-86.00436002 462.00881874 -81.34542089 468.2406384 -76.85742188 474.62548828 C-73.11688539 479.91122992 -69.18685142 485.04702521 -65.25 490.1875 C-58.30964523 499.25082513 -51.49885957 508.40024887 -44.75292969 517.60888672 C-41.67544464 521.80678207 -38.58736063 525.99686559 -35.5 530.1875 C-34.93651855 530.95336426 -34.37303711 531.71922852 -33.79248047 532.50830078 C-32.72245692 533.96150197 -31.65106061 535.41369363 -30.578125 536.86474609 C-29.48082247 538.34943173 -28.38734816 539.83695126 -27.296875 541.32666016 C-26.48476563 542.4276001 -26.48476563 542.4276001 -25.65625 543.55078125 C-25.16962891 544.21376221 -24.68300781 544.87674316 -24.18164062 545.55981445 C-23.79169922 546.03507568 -23.40175781 546.51033691 -23 547 C-22.67 547 -22.34 547 -22 547 C-20.73357418 530.99050442 -19.73414992 514.97667982 -18.9375 498.9375 C-18.89747864 498.15593536 -18.85745728 497.37437073 -18.81622314 496.56912231 C-17.20150452 464.80342261 -16.79309693 433.00465511 -16.46777344 401.20495605 C-16.42736728 397.34437618 -16.38333773 393.48384102 -16.33935165 389.62330055 C-15.90389142 351.24295273 -16.00708198 312.88047644 -16.375 274.5 C-16.38545979 273.40066383 -16.39591957 272.30132767 -16.40669632 271.16867828 C-16.630261 162.4550463 -16.630261 162.4550463 -23 54 C-24.24168953 53.88457179 -24.24168953 53.88457179 -25.56640625 55.50390625 Z " fill="#010101" transform="translate(1011,805)"/>
<path d="M0 0 C5.68940499 -0.00030394 11.37876259 -0.00850019 17.06815362 -0.02069938 C50.6800185 -0.09108173 84.26355113 0.00706624 117.86014581 1.11089242 C119.13096128 1.15250811 120.40177674 1.19412381 121.71110177 1.23700058 C211.13632263 4.2460976 211.13632263 4.2460976 249.20389581 14.18511117 C249.95928643 14.38217659 250.71467706 14.57924202 251.49295831 14.78227913 C267.85226704 19.18360749 284.12655075 25.94368122 293.70389581 40.57573617 C302.41706591 55.73302165 303.68900858 74.4144061 299.64139581 91.24761117 C297.48673941 98.19885247 294.31076949 104.19743471 290.20389581 110.18511117 C289.76561456 110.83866585 289.32733331 111.49222054 288.87577081 112.16557992 C280.38902161 123.33639135 267.18980435 128.46058979 254.20389581 132.18511117 C253.32330499 132.43889534 252.44271417 132.69267952 251.53543878 132.95415413 C211.45314373 144.23973155 168.63335761 146.22867437 127.20389581 148.18511117 C126.14605889 148.23764046 125.08822198 148.29016976 123.9983294 148.34429085 C64.1532288 151.24551746 4.12600179 150.34299939 -55.76208854 149.77894509 C-59.04914837 149.74816786 -62.3362148 149.71819892 -65.62328315 149.68834603 C-93.68872785 149.43045544 -121.74018303 148.96658068 -149.79610419 148.18511117 C-150.87471975 142.06054349 -150.93750568 136.08499246 -150.92549872 129.87578499 C-150.92725104 128.75596734 -150.92900336 127.63614968 -150.93080878 126.48239815 C-150.93520341 122.78563038 -150.93229508 119.08891067 -150.92891669 115.39214242 C-150.92959103 112.80447041 -150.93056214 110.21679846 -150.93181586 107.62912667 C-150.93329012 102.19962065 -150.93124574 96.77013245 -150.92647529 91.34062874 C-150.92106915 85.11688542 -150.92277023 78.89317506 -150.92830169 72.66943258 C-150.93344477 66.63547162 -150.9328251 60.60152637 -150.92991996 54.56756318 C-150.92925953 52.02466686 -150.93004768 49.48176968 -150.93239951 46.93887436 C-150.94294112 32.32091458 -150.71281262 17.77632592 -149.79610419 3.18511117 C-147.123273 2.29416743 -145.33838828 2.01088298 -142.57585883 1.88806832 C-141.72357263 1.84896938 -140.87128642 1.80987044 -139.99317336 1.76958668 C-139.06559659 1.73244462 -138.13801982 1.69530257 -137.18233466 1.65703499 C-136.20436864 1.61567075 -135.22640262 1.57430651 -134.21880126 1.53168881 C-122.6882105 1.06680025 -111.15426932 0.82911932 -99.61641669 0.63432992 C-97.81825192 0.60310823 -97.81825192 0.60310823 -95.9837606 0.5712558 C-63.99089196 0.02906789 -31.99665866 -0.00250946 0 0 Z M-126.79610419 22.18511117 C-126.79610419 57.82511117 -126.79610419 93.46511117 -126.79610419 130.18511117 C-102.29092602 130.22614024 -102.29092602 130.22614024 -77.79512763 129.94145882 C-76.35083679 129.91490664 -74.90654132 129.88860562 -73.46224189 129.86252511 C-69.65025538 129.7929007 -65.83834976 129.71958266 -62.02645373 129.64518702 C-58.7697765 129.58198489 -55.51306399 129.52070523 -52.25635147 129.45935297 C-44.51336245 129.31343106 -36.77043819 129.164382 -29.02754951 129.01323617 C-22.09011289 128.87786062 -15.15262051 128.74603064 -8.21504951 128.61772835 C26.04208826 127.9835434 60.29529751 127.31203617 94.53983331 126.16948617 C95.72785798 126.13027676 96.91588265 126.09106736 98.13990808 126.05066979 C190.44700032 128.38483299 190.44700032 128.38483299 271.25858331 94.69292367 C277.5237478 86.61614534 280.20620235 77.28080754 279.20389581 67.18511117 C277.00146612 57.99663063 271.70670413 51.20306484 263.92264581 45.98589242 C260.43354517 43.87539795 256.84815316 42.01348714 253.20389581 40.18511117 C252.41627862 39.77390023 251.62866143 39.36268929 250.81717706 38.93901742 C217.60399947 23.61444535 168.96444203 25.65721275 133.07889581 24.12261117 C132.13795068 24.08213662 131.19700555 24.04166207 130.22754693 23.99996102 C95.37605038 22.52792942 60.55063917 22.03509614 25.67143011 22.08371723 C20.28242737 22.09010935 14.89342361 22.09056676 9.50441766 22.09174263 C-0.63033872 22.09481042 -10.76508389 22.10296017 -20.89983541 22.11309212 C-34.64446062 22.126525 -48.38908905 22.13179008 -62.13371921 22.13759434 C-83.68785588 22.14690497 -105.24196893 22.16685354 -126.79610419 22.18511117 Z " fill="#010101" transform="translate(1468.7961041927338,907.8148888349533)"/>
</svg>
